<svg id="Layer_1" data-name="Layer 1" xmlns="http://www.w3.org/2000/svg" xmlns:xlink="http://www.w3.org/1999/xlink" viewBox="0 0 1000 1000"><defs><style>.cls-1{fill:none;}.cls-2{fill:#6dc8c2;}.cls-3{fill:#fff;}.cls-4{fill:#c7b8f8;}.cls-5{clip-path:url(#clip-path);}.cls-6{fill:#ffc1eb;}.cls-7{fill:#ffbb45;}.cls-8{fill:#fb6d6d;}</style><clipPath id="clip-path"><path class="cls-1" d="M656.73,735.37,444.25,760.26c-9.52-23.63-11.35-25.8-20.87-49.42a91.86,91.86,0,0,1-2.83-60.61q14.86-49.83,29.72-99.65a11.06,11.06,0,0,1,10.17-7.88l187.44-7.13C652.4,617.62,652.21,653.31,656.73,735.37Z"/></clipPath></defs><polygon class="cls-2" points="416.45 274.61 97.98 835.78 919.06 835.78 616.96 274.61 416.45 274.61"/><path d="M683.61,521.35a65.31,65.31,0,0,0-44.47-92.67,21.55,21.55,0,0,1-10.92-6.11l0-.05c-5.66-5.92-6.63-11.23-14.66-27.32-.86-1.74-1.58-3.14-2-3.94L544.67,417.2l18.13,55.43a65.32,65.32,0,0,0,85.41,80.9,29.78,29.78,0,1,0,35.4-32.18Z"/><circle cx="486.8" cy="522.46" r="32.64"/><path class="cls-3" d="M591.78,436.25a21.84,21.84,0,0,0-21.43-21.95L569,399.6a35.56,35.56,0,0,0-38.55-32.41l-54.15,5.05a26.91,26.91,0,0,0-24.13,29.36l6,66.14a42.37,42.37,0,0,0,45.93,38.61l2.51-.24L510,542.77l71.53-6.66-4-43.42h-.06l-3.18-34.91A21.91,21.91,0,0,0,591.78,436.25Z"/><path d="M569.82,446.71a8.49,8.49,0,1,1,8.49-8.49A8.5,8.5,0,0,1,569.82,446.71Zm0-13a4.49,4.49,0,1,0,4.49,4.49A4.5,4.5,0,0,0,569.82,433.73Z"/><path d="M506.46,506.17l42.59-5.29a1.16,1.16,0,0,1,.64,2.2L508,523Z"/><path d="M563.56,441.91a2,2,0,0,1-2-1.61,13.22,13.22,0,0,1,4.18-12.51A13.69,13.69,0,0,1,578,425a2,2,0,0,1,1.39,2.46,2,2,0,0,1-2.46,1.39,9.68,9.68,0,0,0-8.52,1.92,9.19,9.19,0,0,0-2.9,8.71,2,2,0,0,1-1.57,2.36A2.58,2.58,0,0,1,563.56,441.91Z"/><circle cx="464.93" cy="438.66" r="4.23"/><circle cx="510.06" cy="433.43" r="4.23"/><path d="M483.26,455.53a1.84,1.84,0,0,1-.47-.06c-3.19-.77-6.49-1.93-6.72-4.6a3.84,3.84,0,0,1,1.05-2.73c.2-.26.43-.56.68-.95a9,9,0,0,0,1.36-5l-.09-18.44a2,2,0,0,1,2-2h0a2,2,0,0,1,2,2l.09,18.44a13.07,13.07,0,0,1-2,7.09c-.32.49-.58.85-.81,1.15a14,14,0,0,0,3.34,1.13,2,2,0,0,1-.47,3.95Z"/><path d="M490.14,473.14a18.56,18.56,0,0,1-7.8-1.84,2,2,0,0,1,1.83-3.56c.06,0,4.67,2.34,8.83,1a8.9,8.9,0,0,0,5.12-4.81,2,2,0,1,1,3.57,1.79,12.7,12.7,0,0,1-7.47,6.83A13.14,13.14,0,0,1,490.14,473.14Z"/><rect class="cls-4" x="508.5" y="518.44" width="72.68" height="33.45" transform="translate(-46.82 52.27) rotate(-5.27)"/><path d="M477.33,374.78c6.36-.5,12.43,4.73,16,9.38,6,7.84,8.53,17.4,13.15,26,9.17,17,31.5,19.13,47.77,12.05l61.3-22.87c-1.52-4.89-9.38-32.54-37.49-45.92a73.28,73.28,0,0,0-41.72-6.12L484.75,350a36.14,36.14,0,0,0-17,5.13c-9.33,5.75-19.53,18-15.92,43.87a27.9,27.9,0,0,1,25.54-24.24Z"/><path class="cls-3" d="M456.21,546.26s-23.2,3.25-38.44,49.82C414,607.6,410,619,405.38,630.24l-31.27,70.94,22.77,97.89,51.05-33.2-17.05-44.09c-9.58-23-12.4-48.92-5.17-72.74Z"/><path class="cls-4" d="M656.22,735.48,443.75,760.37c-9.53-23.63-11.36-25.8-20.88-49.41A91.93,91.93,0,0,1,420,650.35l29.73-99.65a11,11,0,0,1,10.16-7.88l187.44-7.13C651.9,617.74,651.7,653.43,656.22,735.48Z"/><g class="cls-5"><path class="cls-3" d="M426.63,471.55c6.64,3.8,10.53,10.74,14,17.28a193.7,193.7,0,0,1,10.53,23.26,191.71,191.71,0,0,1,11.45,49.48,174.88,174.88,0,0,1-2.36,49.61,169.55,169.55,0,0,1-15.13,44.14,159.33,159.33,0,0,1-26.94,38.21q-2,2.13-4.16,4.18c-2.78,2.69,1.46,6.93,4.24,4.24a163.66,163.66,0,0,0,29.38-38.58A174.82,174.82,0,0,0,465,618a179,179,0,0,0,4.09-50.88,195.63,195.63,0,0,0-10.37-51.78,203.62,203.62,0,0,0-10.41-24.77c-3.61-7.22-7.47-14.95-13.54-20.44a28.81,28.81,0,0,0-5.07-3.71c-3.36-1.92-6.38,3.26-3,5.18Z"/><path class="cls-3" d="M577.29,819a150.47,150.47,0,0,1,12.89-66.07,153.94,153.94,0,0,1,40.07-54.39c9-7.73,19.32-15.45,31.18-17.8A28.51,28.51,0,0,1,677.16,682a32.88,32.88,0,0,1,5.87,3.14,33.6,33.6,0,0,1,5.15,4.35c6.91,7,11.54,16.4,14.84,25.6,4.4,12.32,7.3,25.31,9.64,38.16a308.11,308.11,0,0,1,3.75,82.7q-.46,5.19-1.1,10.36c-.2,1.61,1.52,3,3,3a3.07,3.07,0,0,0,3-3,314.23,314.23,0,0,0-1.44-86.25,295.17,295.17,0,0,0-9.21-40.92c-3.17-10.42-7.55-20.69-14.27-29.33-6.57-8.47-15.68-14.62-26.55-15.56-13.19-1.13-25.65,5.93-35.82,13.58A157.17,157.17,0,0,0,588.75,742a159,159,0,0,0-17.52,68.44c-.07,2.85,0,5.69.06,8.54.13,3.85,6.13,3.87,6,0Z"/><path class="cls-3" d="M467.39,768.15a141.82,141.82,0,0,1,.18-49.06c2.65-14.77,7.42-29.43,15.28-42.28a74,74,0,0,1,12.86-15.88,56.34,56.34,0,0,1,7.8-6,48.42,48.42,0,0,1,8.18-4.25,45.9,45.9,0,0,1,17.8-3.14,40.91,40.91,0,0,1,16.67,3.77,30.87,30.87,0,0,1,13.18,11.65c3.71,6.05,5.18,13.46,3,20.12a19.37,19.37,0,0,1-4.78,7.7c-2.12,2.08-5.07,4-8.19,4.27a8.34,8.34,0,0,1-6.93-2.89,18.92,18.92,0,0,1-4.28-7.62c-4.48-14.75,1.89-30.87,9.48-43.41a117.77,117.77,0,0,1,28.22-31.4,142.12,142.12,0,0,1,38.69-21.28,194.76,194.76,0,0,1,47.74-10.67q6-.6,12-.9a3.08,3.08,0,0,0,3-3,3,3,0,0,0-3-3,217.61,217.61,0,0,0-51.68,8.55,156,156,0,0,0-44.22,21,128.63,128.63,0,0,0-32.56,32.38c-9.15,13.34-16.73,29.94-14.8,46.5.86,7.41,3.55,15.17,10,19.5,6.9,4.6,15.58,1.42,20.95-4a26.27,26.27,0,0,0,7.17-21.21,34.25,34.25,0,0,0-10.35-20.69c-9.66-9.29-23.82-12.59-36.87-10.89-14.5,1.89-27.07,9.89-36.44,20.94-10,11.83-16.5,26.3-20.67,41.14a148.47,148.47,0,0,0-5,52.6c.37,4.39,1,8.78,1.7,13.13a3,3,0,0,0,3.69,2.09,3.06,3.06,0,0,0,2.1-3.69Z"/></g><path class="cls-3" d="M766.83,726.24l.11,0-15.21-35.4-32-74.55q-6.91-16.08-13.82-32.18c-6.28-14.61-11.4-30.42-24.64-40.38-17-12.77-42.7-15.4-60.22-2.21-14.91,11.22-19,31.6-18.73,49.34.36,20.11,7,39.67,15.74,57.57,9,18.44,16.4,37.64,24.67,56.43l13.5,30.66L453.74,759.2a65.75,65.75,0,0,0-19.44,5.37q-12.75,5.77-25.94,12.4-7.73,3.88-15.1,7.82l12.71,51H694.81C751.6,835.79,789.12,777.55,766.83,726.24Z"/><path d="M852.54,682.6h-68a12.13,12.13,0,0,1-12.12-12.12V602.42a12.13,12.13,0,0,1,12.12-12.12h68a12.13,12.13,0,0,1,12.12,12.12v68.06A12.13,12.13,0,0,1,852.54,682.6Zm-68-88.3a8.13,8.13,0,0,0-8.12,8.12v68.06a8.13,8.13,0,0,0,8.12,8.12h68a8.13,8.13,0,0,0,8.12-8.12V602.42a8.13,8.13,0,0,0-8.12-8.12Z"/><path d="M803.35,629a10.44,10.44,0,1,1,10.44-10.44A10.45,10.45,0,0,1,803.35,629Zm0-16.88a6.44,6.44,0,1,0,6.44,6.44A6.45,6.45,0,0,0,803.35,612.15Z"/><path d="M833.68,661.39A10.44,10.44,0,1,1,844.12,651,10.45,10.45,0,0,1,833.68,661.39Zm0-16.88a6.44,6.44,0,1,0,6.44,6.44A6.45,6.45,0,0,0,833.68,644.51Z"/><path d="M798.57,667.59a1.94,1.94,0,0,1-1-.29,2,2,0,0,1-.68-2.74L832,606.27a2,2,0,1,1,3.43,2.07l-35.11,58.28A2,2,0,0,1,798.57,667.59Z"/><path d="M961,539.42H744.91a18,18,0,0,1-18-18V352.62a18,18,0,0,1,18-18H961a18,18,0,0,1,18,18V521.44A18,18,0,0,1,961,539.42ZM744.91,338.64a14,14,0,0,0-14,14V521.44a14,14,0,0,0,14,14H961a14,14,0,0,0,14-14V352.62a14,14,0,0,0-14-14Z"/><rect class="cls-2" x="756.56" y="374.17" width="95.28" height="135.85" rx="9.04"/><rect class="cls-6" x="880.96" y="378.37" width="30.15" height="30.15" rx="5.02"/><rect class="cls-6" x="925.09" y="378.37" width="30.15" height="30.15" rx="5.02"/><path d="M955.23,433.36H882.88a2,2,0,0,1,0-4h72.35a2,2,0,0,1,0,4Z"/><path d="M955.23,453.71H882.88a2,2,0,0,1,0-4h72.35a2,2,0,0,1,0,4Z"/><path d="M933.59,475.45H882.88a2,2,0,0,1,0-4h50.71a2,2,0,0,1,0,4Z"/><path class="cls-3" d="M815.77,413.66v5a9.68,9.68,0,0,1-9.33,9.67h0c-.59,0-1.16,0-1.73,0a9.89,9.89,0,0,1-9.58-9.91v-4.75a5.72,5.72,0,0,0-5.72-5.72h0a5.72,5.72,0,0,0-5.72,5.72v51.93a7.3,7.3,0,0,0,7.3,7.3h28.92a7.3,7.3,0,0,0,7.3-7.3V413.66a5.72,5.72,0,0,0-5.72-5.72h0A5.72,5.72,0,0,0,815.77,413.66Z"/><path class="cls-3" d="M696,716.53c0-4.83-17.12-8.75-38.25-8.75s-38.25,3.92-38.25,8.75l-4.11,43.16c9.58-1.56,23-1.66,34.84,5.7A43.1,43.1,0,0,0,664,771.14c8.23,1.73,20.62,2.14,35.53-4.18Z"/><path d="M674.79,774.24a55.1,55.1,0,0,1-11.21-1.14,45.45,45.45,0,0,1-14.4-6c-11.5-7.12-24.55-6.88-33.47-5.43l-2.56.42,4.36-45.66c.22-8.41,26.38-10.64,40.24-10.64S697.83,708,698,716.45l3.62,51.8-1.32.55A65,65,0,0,1,674.79,774.24Zm-49.2-17.4a48.41,48.41,0,0,1,25.7,6.85,41.13,41.13,0,0,0,13.11,5.49c7.32,1.54,18.91,2.14,33-3.52L694,716.53c0-1.62-10.9-6.75-36.25-6.75s-36.25,5.13-36.25,6.75v.19l-3.88,40.63A63.84,63.84,0,0,1,625.59,756.84Z"/><path class="cls-7" d="M702.17,763.42c-15.87,6.32-29.07,5.91-37.83,4.18a48,48,0,0,1-14.64-5.75c-12.67-7.37-26.9-7.26-37.1-5.71l-4.17,41.07a37.59,37.59,0,0,0,37.4,41.4h21.43a37.6,37.6,0,0,0,37.5-40.38Z"/><path d="M654.71,812.66h-.18a2,2,0,0,1-1.81-2.17l12.45-137.8a8.36,8.36,0,0,1,8.37-7.65h29.62a2,2,0,1,1,0,4H673.54a4.4,4.4,0,0,0-4.39,4L656.7,810.84A2,2,0,0,1,654.71,812.66Z"/><path d="M657.67,727c-1.15,0-2.3,0-3.44-.06a92.45,92.45,0,0,1-35.57-8.59,2,2,0,0,1,1.69-3.63,88.32,88.32,0,0,0,34,8.22,89.4,89.4,0,0,0,40.78-8.22,2,2,0,1,1,1.68,3.63A93.69,93.69,0,0,1,657.67,727Z"/><path d="M531.25,543.55a2,2,0,0,1-2-1.88l-1.18-20.34a2,2,0,1,1,4-.23l1.18,20.33a2,2,0,0,1-1.88,2.12Z"/><path d="M551.53,542.07a2,2,0,0,1-2-1.88l-1.18-20.34a2,2,0,1,1,4-.23L553.53,540a2,2,0,0,1-1.88,2.12Z"/><path d="M344.39,546.09H132.23a14,14,0,0,1-14-14V396.67a14,14,0,0,1,14-14H344.39a14,14,0,0,1,14,14V532.06A14,14,0,0,1,344.39,546.09ZM132.23,386.64a10,10,0,0,0-10,10V532.06a10,10,0,0,0,10,10H344.39a10,10,0,0,0,10-10V396.67a10,10,0,0,0-10-10Z"/><rect class="cls-7" x="227.68" y="485.09" width="105.44" height="18.41" rx="7.79"/><path d="M328.72,438.5H232.08a2,2,0,0,1,0-4h96.64a2,2,0,0,1,0,4Z"/><path d="M315.11,460.37h-83a2,2,0,0,1,0-4h83a2,2,0,0,1,0,4Z"/><path d="M163.34,440.66a2,2,0,0,1-2-2c-.17-7,2.44-11.23,4.66-13.53a13.74,13.74,0,0,1,9.45-4.25,13.29,13.29,0,0,1,9.28,4c2.27,2.28,5,6.52,4.88,13.76a2,2,0,0,1-2,2h0a2,2,0,0,1-2-2c.07-5.85-2-9.15-3.71-10.89a9.52,9.52,0,0,0-6.42-2.82,9.63,9.63,0,0,0-6.61,3c-2.42,2.5-3.64,6.18-3.53,10.65a2,2,0,0,1-2,2Z"/><path class="cls-6" d="M199.91,506H151.27a8.36,8.36,0,0,1-8.29-9.47l6.78-50.58a8.36,8.36,0,0,1,8.29-7.24H192a8.35,8.35,0,0,1,8.26,7.06l7.93,50.58A8.35,8.35,0,0,1,199.91,506Z"/><path d="M554.91,838.15H393.26V803.2H554.91a8.42,8.42,0,0,1,8.42,8.42v18.1A8.42,8.42,0,0,1,554.91,838.15Z"/><path d="M411.51,838.15H222.05a16.39,16.39,0,0,1-15.82-11.57L159.84,669.3c-3-10.19,4.89-20.34,15.82-20.34H354.34a16.33,16.33,0,0,1,16.05,12.44Z"/><circle class="cls-6" cx="273.91" cy="758.47" r="26.25"/><path class="cls-2" d="M268.14,739.81a2,2,0,0,1-1.94-1.53l-3.14-12.86a2,2,0,1,1,3.89-.95l3.14,12.86a2,2,0,0,1-1.47,2.42A2,2,0,0,1,268.14,739.81Z"/><path d="M919.06,837.79H126.32a2,2,0,1,1,0-4H919.06a2,2,0,0,1,0,4Z"/><path class="cls-3" d="M516.7,300.62a34.05,34.05,0,1,1,34-34.05A34.1,34.1,0,0,1,516.7,300.62Zm0-64.1a30,30,0,1,0,30,30A30.08,30.08,0,0,0,516.7,236.52Z"/><rect x="507.54" y="148.05" width="18.33" height="79.66" rx="7.76"/><path class="cls-6" d="M515.24,205.49a117.79,117.79,0,0,0-102.5,63,4.19,4.19,0,0,0,3.71,6.15H617a4.19,4.19,0,0,0,3.7-6.15A117.81,117.81,0,0,0,515.24,205.49Z"/><path class="cls-8" d="M455.1,255.45c-13.16,0-23.89-8.89-24.05-9a2,2,0,0,1,2.58-3.06h0c.88.74,21.68,17.88,39.44.12l1.21-1.21,1.39,1c1,.72,24.42,17.48,41.71.2l1.17-1.18,1.38.94a44.55,44.55,0,0,0,12.77,5.6c9.35,2.36,17.09.56,23-5.36l1.24-1.24,1.39,1.06c.93.71,23.07,17.26,40.16.18a2,2,0,0,1,2.83,2.82c-16.94,16.94-38.37,4.85-44,1.15-6.78,6-15.63,7.82-25.72,5.24a49,49,0,0,1-12.55-5.28c-17,15.47-38.65,3.61-44.33,0C468.21,253.42,461.38,255.45,455.1,255.45Z"/><path d="M398.4,785.62a2,2,0,0,1-1-3.7c6.5-4,13.24-7.72,20-11.17,9-4.55,18.27-8.71,27.65-12.36a2,2,0,0,1,1.45,3.73c-9.26,3.6-18.44,7.7-27.29,12.2-6.69,3.4-13.33,7.11-19.76,11A1.94,1.94,0,0,1,398.4,785.62Z"/><path class="cls-3" d="M140.29,728.06l11.59-43.88H86.13l10.44,44.36a56.08,56.08,0,1,0,43.72-.48Z"/><path d="M119,838A58.08,58.08,0,0,1,94.25,727.4L83.6,682.18h70.87l-11.8,44.72A58.08,58.08,0,0,1,119,838ZM88.65,686.18,98.9,729.71l-1.53.66a54.09,54.09,0,1,0,42.16-.46l-1.62-.67,11.37-43.06Z"/><ellipse cx="118.98" cy="682.09" rx="35.58" ry="7.54"/><path d="M109.3,688.16a2,2,0,0,1-1.87-1.31c-12.14-33.1-37.23-60-37.48-60.23a2,2,0,1,1,2.91-2.75c.26.28,25.9,27.72,38.32,61.6A2,2,0,0,1,110,688,2.09,2.09,0,0,1,109.3,688.16Z"/><path d="M125.32,688.43a2,2,0,0,1-2-2V657.79a2,2,0,0,1,4,0v28.64A2,2,0,0,1,125.32,688.43Z"/><path class="cls-4" d="M81.53,606.6H73c-.16-.44-.34-.87-.53-1.29l6.21-5.5A6.55,6.55,0,1,0,70,590l-6.54,5.79c-.1.09-.18.2-.28.3-.41-.19-.83-.36-1.26-.52v-7.93a6.56,6.56,0,0,0-13.11,0v7.93a18.66,18.66,0,0,0-1.78.76,6,6,0,0,0-.6-.64L39.84,590a6.56,6.56,0,0,0-8.56,9.93l6.62,5.71a1,1,0,0,0,.17.12c-.12.28-.22.57-.33.86H29.52A6.55,6.55,0,0,0,23,613.15h0a6.56,6.56,0,0,0,6.55,6.56h8.14l.2.54-.06,0-6.55,5.79a6.56,6.56,0,0,0,8.69,9.82l6.54-5.79.14-.15a17,17,0,0,0,2.22,1v7.86a6.56,6.56,0,0,0,13.11,0V631c.45-.17.9-.35,1.34-.56l6.42,5.53A6.55,6.55,0,0,0,78.27,626l-5.7-4.92c.2-.45.38-.91.55-1.37h8.41a6.56,6.56,0,0,0,6.56-6.56h0A6.56,6.56,0,0,0,81.53,606.6Z"/><path class="cls-4" d="M81.53,606.6H73c-.16-.44-.34-.87-.53-1.29l6.21-5.5A6.55,6.55,0,1,0,70,590l-6.54,5.79c-.1.09-.18.2-.28.3-.41-.19-.83-.36-1.26-.52v-7.93a6.56,6.56,0,0,0-13.11,0v7.93a18.66,18.66,0,0,0-1.78.76,6,6,0,0,0-.6-.64L39.84,590a6.56,6.56,0,0,0-8.56,9.93l6.62,5.71a1,1,0,0,0,.17.12c-.12.28-.22.57-.33.86H29.52A6.55,6.55,0,0,0,23,613.15h0a6.56,6.56,0,0,0,6.55,6.56h8.14l.2.54-.06,0-6.55,5.79a6.56,6.56,0,0,0,8.69,9.82l6.54-5.79.14-.15a17,17,0,0,0,2.22,1v7.86a6.56,6.56,0,0,0,13.11,0V631c.45-.17.9-.35,1.34-.56l6.42,5.53A6.55,6.55,0,0,0,78.27,626l-5.7-4.92c.2-.45.38-.91.55-1.37h8.41a6.56,6.56,0,0,0,6.56-6.56h0A6.56,6.56,0,0,0,81.53,606.6Z"/><path class="cls-4" d="M81.53,606.6H73c-.16-.44-.34-.87-.53-1.29l6.21-5.5A6.55,6.55,0,1,0,70,590l-6.54,5.79c-.1.09-.18.2-.28.3-.41-.19-.83-.36-1.26-.52v-7.93a6.56,6.56,0,0,0-13.11,0v7.93a18.66,18.66,0,0,0-1.78.76,6,6,0,0,0-.6-.64L39.84,590a6.56,6.56,0,0,0-8.56,9.93l6.62,5.71a1,1,0,0,0,.17.12c-.12.28-.22.57-.33.86H29.52A6.55,6.55,0,0,0,23,613.15h0a6.56,6.56,0,0,0,6.55,6.56h8.14l.2.54-.06,0-6.55,5.79a6.56,6.56,0,0,0,8.69,9.82l6.54-5.79.14-.15a17,17,0,0,0,2.22,1v7.86a6.56,6.56,0,0,0,13.11,0V631c.45-.17.9-.35,1.34-.56l6.42,5.53A6.55,6.55,0,0,0,78.27,626l-5.7-4.92c.2-.45.38-.91.55-1.37h8.41a6.56,6.56,0,0,0,6.56-6.56h0A6.56,6.56,0,0,0,81.53,606.6Z"/><path class="cls-4" d="M81.53,606.6H73c-.16-.44-.34-.87-.53-1.29l6.21-5.5A6.55,6.55,0,1,0,70,590l-6.54,5.79c-.1.09-.18.2-.28.3-.41-.19-.83-.36-1.26-.52v-7.93a6.56,6.56,0,0,0-13.11,0v7.93a18.66,18.66,0,0,0-1.78.76,6,6,0,0,0-.6-.64L39.84,590a6.56,6.56,0,0,0-8.56,9.93l6.62,5.71a1,1,0,0,0,.17.12c-.12.28-.22.57-.33.86H29.52A6.55,6.55,0,0,0,23,613.15h0a6.56,6.56,0,0,0,6.55,6.56h8.14l.2.54-.06,0-6.55,5.79a6.56,6.56,0,0,0,8.69,9.82l6.54-5.79.14-.15a17,17,0,0,0,2.22,1v7.86a6.56,6.56,0,0,0,13.11,0V631c.45-.17.9-.35,1.34-.56l6.42,5.53A6.55,6.55,0,0,0,78.27,626l-5.7-4.92c.2-.45.38-.91.55-1.37h8.41a6.56,6.56,0,0,0,6.56-6.56h0A6.56,6.56,0,0,0,81.53,606.6Z"/><path class="cls-4" d="M81.53,606.6H73c-.16-.44-.34-.87-.53-1.29l6.21-5.5A6.55,6.55,0,1,0,70,590l-6.54,5.79c-.1.09-.18.2-.28.3-.41-.19-.83-.36-1.26-.52v-7.93a6.56,6.56,0,0,0-13.11,0v7.93a18.66,18.66,0,0,0-1.78.76,6,6,0,0,0-.6-.64L39.84,590a6.56,6.56,0,0,0-8.56,9.93l6.62,5.71a1,1,0,0,0,.17.12c-.12.28-.22.57-.33.86H29.52A6.55,6.55,0,0,0,23,613.15h0a6.56,6.56,0,0,0,6.55,6.56h8.14l.2.54-.06,0-6.55,5.79a6.56,6.56,0,0,0,8.69,9.82l6.54-5.79.14-.15a17,17,0,0,0,2.22,1v7.86a6.56,6.56,0,0,0,13.11,0V631c.45-.17.9-.35,1.34-.56l6.42,5.53A6.55,6.55,0,0,0,78.27,626l-5.7-4.92c.2-.45.38-.91.55-1.37h8.41a6.56,6.56,0,0,0,6.56-6.56h0A6.56,6.56,0,0,0,81.53,606.6Z"/><path class="cls-4" d="M81.53,606.6H73c-.16-.44-.34-.87-.53-1.29l6.21-5.5A6.55,6.55,0,1,0,70,590l-6.54,5.79c-.1.09-.18.2-.28.3-.41-.19-.83-.36-1.26-.52v-7.93a6.56,6.56,0,0,0-13.11,0v7.93a18.66,18.66,0,0,0-1.78.76,6,6,0,0,0-.6-.64L39.84,590a6.56,6.56,0,0,0-8.56,9.93l6.62,5.71a1,1,0,0,0,.17.12c-.12.28-.22.57-.33.86H29.52A6.55,6.55,0,0,0,23,613.15h0a6.56,6.56,0,0,0,6.55,6.56h8.14l.2.54-.06,0-6.55,5.79a6.56,6.56,0,0,0,8.69,9.82l6.54-5.79.14-.15a17,17,0,0,0,2.22,1v7.86a6.56,6.56,0,0,0,13.11,0V631c.45-.17.9-.35,1.34-.56l6.42,5.53A6.55,6.55,0,0,0,78.27,626l-5.7-4.92c.2-.45.38-.91.55-1.37h8.41a6.56,6.56,0,0,0,6.56-6.56h0A6.56,6.56,0,0,0,81.53,606.6Z"/><path class="cls-4" d="M81.53,606.6H73c-.16-.44-.34-.87-.53-1.29l6.21-5.5A6.55,6.55,0,1,0,70,590l-6.54,5.79c-.1.09-.18.2-.28.3-.41-.19-.83-.36-1.26-.52v-7.93a6.56,6.56,0,0,0-13.11,0v7.93a18.66,18.66,0,0,0-1.78.76,6,6,0,0,0-.6-.64L39.84,590a6.56,6.56,0,0,0-8.56,9.93l6.62,5.71a1,1,0,0,0,.17.12c-.12.28-.22.57-.33.86H29.52A6.55,6.55,0,0,0,23,613.15h0a6.56,6.56,0,0,0,6.55,6.56h8.14l.2.54-.06,0-6.55,5.79a6.56,6.56,0,0,0,8.69,9.82l6.54-5.79.14-.15a17,17,0,0,0,2.22,1v7.86a6.56,6.56,0,0,0,13.11,0V631c.45-.17.9-.35,1.34-.56l6.42,5.53A6.55,6.55,0,0,0,78.27,626l-5.7-4.92c.2-.45.38-.91.55-1.37h8.41a6.56,6.56,0,0,0,6.56-6.56h0A6.56,6.56,0,0,0,81.53,606.6Z"/><path class="cls-4" d="M151.33,630.75h-8.49c-.16-.44-.34-.86-.54-1.28l6.22-5.5a6.56,6.56,0,0,0-8.69-9.82l-6.54,5.79a4,4,0,0,0-.28.3c-.41-.19-.84-.36-1.27-.52v-7.93a6.56,6.56,0,0,0-13.11,0v7.93c-.6.22-1.19.48-1.77.76a7.22,7.22,0,0,0-.6-.64l-6.62-5.71a6.56,6.56,0,1,0-8.56,9.93l6.61,5.71a1.88,1.88,0,0,0,.18.12c-.12.28-.23.57-.33.86H99.32a6.55,6.55,0,0,0-6.55,6.55h0a6.56,6.56,0,0,0,6.55,6.56h8.14c.06.18.13.37.2.55,0,0,0,0-.06,0l-6.55,5.79a6.56,6.56,0,1,0,8.69,9.82l6.54-5.79.14-.14a19,19,0,0,0,2.21,1V663a6.56,6.56,0,0,0,13.11,0V655.1c.46-.17.91-.35,1.35-.56l6.41,5.53a6.55,6.55,0,1,0,8.57-9.92l-5.71-4.92c.21-.45.39-.91.56-1.37h8.41a6.56,6.56,0,0,0,6.55-6.56h0A6.55,6.55,0,0,0,151.33,630.75Z"/><path class="cls-4" d="M151.33,630.75h-8.49c-.16-.44-.34-.86-.54-1.28l6.22-5.5a6.56,6.56,0,0,0-8.69-9.82l-6.54,5.79a4,4,0,0,0-.28.3c-.41-.19-.84-.36-1.27-.52v-7.93a6.56,6.56,0,0,0-13.11,0v7.93c-.6.22-1.19.48-1.77.76a7.22,7.22,0,0,0-.6-.64l-6.62-5.71a6.56,6.56,0,1,0-8.56,9.93l6.61,5.71a1.88,1.88,0,0,0,.18.12c-.12.28-.23.57-.33.86H99.32a6.55,6.55,0,0,0-6.55,6.55h0a6.56,6.56,0,0,0,6.55,6.56h8.14c.06.18.13.37.2.55,0,0,0,0-.06,0l-6.55,5.79a6.56,6.56,0,1,0,8.69,9.82l6.54-5.79.14-.14a19,19,0,0,0,2.21,1V663a6.56,6.56,0,0,0,13.11,0V655.1c.46-.17.91-.35,1.35-.56l6.41,5.53a6.55,6.55,0,1,0,8.57-9.92l-5.71-4.92c.21-.45.39-.91.56-1.37h8.41a6.56,6.56,0,0,0,6.55-6.56h0A6.55,6.55,0,0,0,151.33,630.75Z"/><path class="cls-4" d="M151.33,630.75h-8.49c-.16-.44-.34-.86-.54-1.28l6.22-5.5a6.56,6.56,0,0,0-8.69-9.82l-6.54,5.79a4,4,0,0,0-.28.3c-.41-.19-.84-.36-1.27-.52v-7.93a6.56,6.56,0,0,0-13.11,0v7.93c-.6.22-1.19.48-1.77.76a7.22,7.22,0,0,0-.6-.64l-6.62-5.71a6.56,6.56,0,1,0-8.56,9.93l6.61,5.71a1.88,1.88,0,0,0,.18.12c-.12.28-.23.57-.33.86H99.32a6.55,6.55,0,0,0-6.55,6.55h0a6.56,6.56,0,0,0,6.55,6.56h8.14c.06.18.13.37.2.55,0,0,0,0-.06,0l-6.55,5.79a6.56,6.56,0,1,0,8.69,9.82l6.54-5.79.14-.14a19,19,0,0,0,2.21,1V663a6.56,6.56,0,0,0,13.11,0V655.1c.46-.17.91-.35,1.35-.56l6.41,5.53a6.55,6.55,0,1,0,8.57-9.92l-5.71-4.92c.21-.45.39-.91.56-1.37h8.41a6.56,6.56,0,0,0,6.55-6.56h0A6.55,6.55,0,0,0,151.33,630.75Z"/><path class="cls-4" d="M151.33,630.75h-8.49c-.16-.44-.34-.86-.54-1.28l6.22-5.5a6.56,6.56,0,0,0-8.69-9.82l-6.54,5.79a4,4,0,0,0-.28.3c-.41-.19-.84-.36-1.27-.52v-7.93a6.56,6.56,0,0,0-13.11,0v7.93c-.6.22-1.19.48-1.77.76a7.22,7.22,0,0,0-.6-.64l-6.62-5.71a6.56,6.56,0,1,0-8.56,9.93l6.61,5.71a1.88,1.88,0,0,0,.18.12c-.12.28-.23.57-.33.86H99.32a6.55,6.55,0,0,0-6.55,6.55h0a6.56,6.56,0,0,0,6.55,6.56h8.14c.06.18.13.37.2.55,0,0,0,0-.06,0l-6.55,5.79a6.56,6.56,0,1,0,8.69,9.82l6.54-5.79.14-.14a19,19,0,0,0,2.21,1V663a6.56,6.56,0,0,0,13.11,0V655.1c.46-.17.91-.35,1.35-.56l6.41,5.53a6.55,6.55,0,1,0,8.57-9.92l-5.71-4.92c.21-.45.39-.91.56-1.37h8.41a6.56,6.56,0,0,0,6.55-6.56h0A6.55,6.55,0,0,0,151.33,630.75Z"/><path class="cls-4" d="M151.33,630.75h-8.49c-.16-.44-.34-.86-.54-1.28l6.22-5.5a6.56,6.56,0,0,0-8.69-9.82l-6.54,5.79a4,4,0,0,0-.28.3c-.41-.19-.84-.36-1.27-.52v-7.93a6.56,6.56,0,0,0-13.11,0v7.93c-.6.22-1.19.48-1.77.76a7.22,7.22,0,0,0-.6-.64l-6.62-5.71a6.56,6.56,0,1,0-8.56,9.93l6.61,5.71a1.88,1.88,0,0,0,.18.12c-.12.28-.23.57-.33.86H99.32a6.55,6.55,0,0,0-6.55,6.55h0a6.56,6.56,0,0,0,6.55,6.56h8.14c.06.18.13.37.2.55,0,0,0,0-.06,0l-6.55,5.79a6.56,6.56,0,1,0,8.69,9.82l6.54-5.79.14-.14a19,19,0,0,0,2.21,1V663a6.56,6.56,0,0,0,13.11,0V655.1c.46-.17.91-.35,1.35-.56l6.41,5.53a6.55,6.55,0,1,0,8.57-9.92l-5.71-4.92c.21-.45.39-.91.56-1.37h8.41a6.56,6.56,0,0,0,6.55-6.56h0A6.55,6.55,0,0,0,151.33,630.75Z"/><path class="cls-4" d="M151.33,630.75h-8.49c-.16-.44-.34-.86-.54-1.28l6.22-5.5a6.56,6.56,0,0,0-8.69-9.82l-6.54,5.79a4,4,0,0,0-.28.3c-.41-.19-.84-.36-1.27-.52v-7.93a6.56,6.56,0,0,0-13.11,0v7.93c-.6.22-1.19.48-1.77.76a7.22,7.22,0,0,0-.6-.64l-6.62-5.71a6.56,6.56,0,1,0-8.56,9.93l6.61,5.71a1.88,1.88,0,0,0,.18.12c-.12.28-.23.57-.33.86H99.32a6.55,6.55,0,0,0-6.55,6.55h0a6.56,6.56,0,0,0,6.55,6.56h8.14c.06.18.13.37.2.55,0,0,0,0-.06,0l-6.55,5.79a6.56,6.56,0,1,0,8.69,9.82l6.54-5.79.14-.14a19,19,0,0,0,2.21,1V663a6.56,6.56,0,0,0,13.11,0V655.1c.46-.17.91-.35,1.35-.56l6.41,5.53a6.55,6.55,0,1,0,8.57-9.92l-5.71-4.92c.21-.45.39-.91.56-1.37h8.41a6.56,6.56,0,0,0,6.55-6.56h0A6.55,6.55,0,0,0,151.33,630.75Z"/><path class="cls-4" d="M151.33,630.75h-8.49c-.16-.44-.34-.86-.54-1.28l6.22-5.5a6.56,6.56,0,0,0-8.69-9.82l-6.54,5.79a4,4,0,0,0-.28.3c-.41-.19-.84-.36-1.27-.52v-7.93a6.56,6.56,0,0,0-13.11,0v7.93c-.6.22-1.19.48-1.77.76a7.22,7.22,0,0,0-.6-.64l-6.62-5.71a6.56,6.56,0,1,0-8.56,9.93l6.61,5.71a1.88,1.88,0,0,0,.18.12c-.12.28-.23.57-.33.86H99.32a6.55,6.55,0,0,0-6.55,6.55h0a6.56,6.56,0,0,0,6.55,6.56h8.14c.06.18.13.37.2.55,0,0,0,0-.06,0l-6.55,5.79a6.56,6.56,0,1,0,8.69,9.82l6.54-5.79.14-.14a19,19,0,0,0,2.21,1V663a6.56,6.56,0,0,0,13.11,0V655.1c.46-.17.91-.35,1.35-.56l6.41,5.53a6.55,6.55,0,1,0,8.57-9.92l-5.71-4.92c.21-.45.39-.91.56-1.37h8.41a6.56,6.56,0,0,0,6.55-6.56h0A6.55,6.55,0,0,0,151.33,630.75Z"/><circle class="cls-3" cx="55.53" cy="613.22" r="8.68"/><circle class="cls-3" cx="125.33" cy="637.84" r="8.68"/><path d="M136.73,794.75a16.44,16.44,0,1,1,16.44-16.44A16.46,16.46,0,0,1,136.73,794.75Zm0-28.88a12.44,12.44,0,1,0,12.44,12.44A12.47,12.47,0,0,0,136.73,765.87Z"/><path d="M110.83,822.1a11.39,11.39,0,1,1,11.39-11.39A11.4,11.4,0,0,1,110.83,822.1Zm0-18.78a7.39,7.39,0,1,0,7.39,7.39A7.4,7.4,0,0,0,110.83,803.32Z"/></svg>