<svg id="Layer_1" data-name="Layer 1" xmlns="http://www.w3.org/2000/svg" viewBox="0 0 1000 1000"><defs><style>.cls-1{fill:#ffc1eb;}.cls-2{fill:#6dc8c2;}.cls-3{fill:#fb6d6d;}.cls-4{fill:#fff;}.cls-5{fill:#c7b8f8;}.cls-6{fill:#ffbb45;}</style></defs><path class="cls-1" d="M570.57,115.2,85.24,576.8C50.72,609.63,64.68,667.52,110.38,681L752.8,870.51C798.5,884,841.65,843,830.47,796.64L673.38,145.53C662.21,99.22,605.09,82.37,570.57,115.2Z"/><path class="cls-2" d="M565.73,690.67H355.51A431.84,431.84,0,0,0,309,894.17l298.5.27A605.19,605.19,0,0,0,594,783.64,606.17,606.17,0,0,0,565.73,690.67Z"/><rect x="379.31" y="437.66" width="168.06" height="179.15"/><path d="M481.11,407.81H440.39a48.67,48.67,0,0,1-48.67-48.67V307.69a47.49,47.49,0,0,1,47.49-47.49h41.73a62.74,62.74,0,0,1,62.74,62.74v22.3A62.57,62.57,0,0,1,481.11,407.81Z"/><path class="cls-3" d="M531.8,390.61l24.93-82.42a8.18,8.18,0,0,1,11.61-4.89l26.92,14A8.18,8.18,0,0,1,597,330.6Z"/><path class="cls-3" d="M525.41,387.38l71.17-44.31a8.67,8.67,0,0,1,12.77,4.53l9.44,27.33a8.66,8.66,0,0,1-8.1,11.49Z"/><path d="M547.37,393.35a14.54,14.54,0,1,1,14.54-14.54A14.56,14.56,0,0,1,547.37,393.35Zm0-25.08a10.54,10.54,0,1,0,10.54,10.54A10.56,10.56,0,0,0,547.37,368.27Z"/><path class="cls-4" d="M521.06,356.69a20.88,20.88,0,0,0-18.29-22.93l.13-14.11a34,34,0,0,0-33.59-34.53l-52-.37a25.73,25.73,0,0,0-25.76,25.63L391,373.89A40.53,40.53,0,0,0,431,415l2.4,0-.32,35.2,68.71.49.38-41.69h-.06l.31-33.53A20.94,20.94,0,0,0,521.06,356.69Z"/><path class="cls-4" d="M654.75,532.74l-82.41,48.58,51.18,105.84s23.1,43.86,66.42,23.3a71.86,71.86,0,0,0,37.1-42.6l44.53-135.12s65.42-22.21,75.12-79.37a14.76,14.76,0,0,0,.09-5.5,14.94,14.94,0,0,0-3.59-7.32,29.1,29.1,0,0,0,1.6-4.67c.9-3.63,1.76-7.17-1.18-10.17a7,7,0,0,0-9.66-.6c.68-3.72-.34-7-2.63-8.44a5.38,5.38,0,0,0-3.12-.73c-5.17.31-8.93,7.4-10,9.38-4.38,8-13.63,21.53-27.33,40.5,0,0,19.71-26.73,9.22-34.09-3.13-2.19-6.87.88-8.93,3.06-3.81,4-5.28,9.53-8.11,14.13a45.57,45.57,0,0,1-14.59,14.19c-9.25,5.88-19.49,9-27.93,16.17a60.62,60.62,0,0,0-10.2,11c-3.43,4.82-4.64,10.51-7.6,15.38l-45.81,74.95Z"/><path d="M667.58,717.93c-29.7,0-45.64-29.47-45.83-29.84l-52-107.56,85.89-50.63,21.52,46.51L721,504.64a46.71,46.71,0,0,0,3.14-6.6,44.12,44.12,0,0,1,4.54-8.88,62.58,62.58,0,0,1,10.53-11.4c5.28-4.5,11.26-7.46,17-10.32a118.83,118.83,0,0,0,11.12-6,43.3,43.3,0,0,0,14-13.55,51.26,51.26,0,0,0,2.67-5.18c1.51-3.21,3.07-6.52,5.69-9.28,5.65-6,9.65-4.63,11.53-3.31a9.07,9.07,0,0,1,3.76,6.21,17.94,17.94,0,0,1-.36,6.57c5.62-8.21,9.48-14.27,11.81-18.52l.06-.13c1.34-2.45,5.41-9.92,11.58-10.28a7.17,7.17,0,0,1,4.29,1,8.61,8.61,0,0,1,3.73,6.75,9.22,9.22,0,0,1,8.93,2.59c3.75,3.81,2.61,8.38,1.7,12.05a29.07,29.07,0,0,1-1.23,3.84,16.69,16.69,0,0,1,3.15,13.57c-4,23.83-18.57,45.41-42,62.34a147.61,147.61,0,0,1-33.5,18.19L728.94,668.48a74.1,74.1,0,0,1-38.15,43.79A54,54,0,0,1,667.58,717.93ZM574.94,582.11l50.38,104.18A63.82,63.82,0,0,0,641.79,705c14.19,10.59,30.1,11.82,47.29,3.65a70.09,70.09,0,0,0,36.06-41.42L770,531.17l.95-.32c.64-.22,64.41-22.52,73.79-77.82a12.8,12.8,0,0,0,.09-4.81,13,13,0,0,0-3.11-6.34l-.86-1,.52-1.18a26.79,26.79,0,0,0,1.49-4.34c.93-3.77,1.4-6.18-.67-8.29a5,5,0,0,0-6.88-.52l-4.38,4,1.07-5.82c.52-2.85-.17-5.42-1.72-6.37a3.24,3.24,0,0,0-1.95-.43c-2.62.15-5.42,2.92-8.3,8.21l-.07.12c-4.15,7.58-12.49,20-27,40.11l-.45.63-3.23-2.36.65-.9c4-5.7,12.36-19.37,11.15-26.8a5.11,5.11,0,0,0-2.11-3.58c-2-1.4-5.09,1.49-6.33,2.8-2.18,2.28-3.53,5.17-5,8.23a59,59,0,0,1-2.89,5.57,47.29,47.29,0,0,1-15.21,14.83A121.78,121.78,0,0,1,758,471c-5.82,2.89-11.32,5.61-16.23,9.79A58.33,58.33,0,0,0,732,491.47a40.24,40.24,0,0,0-4.1,8.1,52.52,52.52,0,0,1-3.42,7.16l-47.76,78.14-22.81-49.28Z"/><path d="M500,364.68a7.81,7.81,0,0,1-.83,0,8.21,8.21,0,1,1,9-7.35h0a8.22,8.22,0,0,1-8.16,7.39Zm0-12.42a4.21,4.21,0,1,0,4.19,4.63h0a4.22,4.22,0,0,0-3.77-4.61Zm6.18,4.83h0Z"/><path d="M434.3,413.05l41-1a1.11,1.11,0,0,1,.4,2.16l-41.57,15Z"/><path d="M493.86,359.48a2,2,0,0,1-2-1.8,12.7,12.7,0,0,1,5.21-11.59,13.17,13.17,0,0,1,12-1.47,2,2,0,1,1-1.46,3.72,9.2,9.2,0,0,0-8.2,1,8.68,8.68,0,0,0-3.56,7.93,2,2,0,0,1-1.79,2.19Z"/><path class="cls-4" d="M292.46,526.89l82.41,48.58L323.69,681.31s-23.11,43.86-66.42,23.3a71.8,71.8,0,0,1-37.1-42.6L175.63,526.89s-65.42-22.21-75.11-79.37a14.74,14.74,0,0,1-.09-5.5A14.94,14.94,0,0,1,104,434.7a29.1,29.1,0,0,1-1.6-4.67c-.9-3.62-1.76-7.17,1.19-10.17a7,7,0,0,1,9.65-.6c-.68-3.72.35-7,2.63-8.44a5.46,5.46,0,0,1,3.12-.73c5.17.31,8.93,7.4,10,9.38,4.39,8,13.64,21.54,27.33,40.5,0,0-19.71-26.73-9.22-34.09,3.13-2.19,6.87.89,8.94,3.06,3.81,4,5.27,9.54,8.1,14.13a45.77,45.77,0,0,0,14.59,14.19c9.25,5.88,19.49,9,27.94,16.17a61,61,0,0,1,10.2,11c3.42,4.82,4.64,10.5,7.6,15.37l45.8,74.95Z"/><path d="M279.63,712.08a53.82,53.82,0,0,1-23.22-5.66,74.09,74.09,0,0,1-38.14-43.79L174,528.45a147.17,147.17,0,0,1-33.5-18.19c-23.42-16.92-37.94-38.51-42-62.41a16.63,16.63,0,0,1,3.16-13.49,33,33,0,0,1-1.23-3.84c-.91-3.68-2-8.24,1.7-12.06a9.24,9.24,0,0,1,8.93-2.59,8.63,8.63,0,0,1,3.73-6.75,7.19,7.19,0,0,1,4.29-1c6.17.37,10.24,7.83,11.58,10.28l.07.13c2.37,4.33,6.17,10.32,11.81,18.54a17.83,17.83,0,0,1-.36-6.59,9,9,0,0,1,3.76-6.21c1.88-1.32,5.88-2.64,11.53,3.31,2.61,2.76,4.18,6.08,5.69,9.28a49.29,49.29,0,0,0,2.67,5.18,43.29,43.29,0,0,0,13.95,13.56,122.41,122.41,0,0,0,11.12,6c5.78,2.86,11.76,5.83,17,10.32a63,63,0,0,1,10.54,11.4,44.07,44.07,0,0,1,4.53,8.88,48.56,48.56,0,0,0,3.15,6.61l43.85,71.76,21.52-46.51,85.9,50.64-52,107.49C325.27,682.6,309.32,712.08,279.63,712.08ZM108.91,419.58a5.57,5.57,0,0,0-3.88,1.68c-2.08,2.11-1.61,4.53-.67,8.29a25.83,25.83,0,0,0,1.48,4.34l.52,1.18-.85,1a12.81,12.81,0,0,0-3.11,6.34,12.4,12.4,0,0,0,.08,4.74c9.4,55.42,73.15,77.67,73.8,77.89l.94.32,44.85,136.06a70.07,70.07,0,0,0,36.06,41.43c17.23,8.18,33.18,6.93,47.39-3.74a63.59,63.59,0,0,0,16.4-18.69l50.34-104.12-78.91-46.52L270.54,579l-47.76-78.15a50.83,50.83,0,0,1-3.42-7.16,40.77,40.77,0,0,0-4.1-8.1A58.69,58.69,0,0,0,205.39,475c-4.91-4.18-10.4-6.9-16.22-9.79A121.78,121.78,0,0,1,177.68,459a47.33,47.33,0,0,1-15.22-14.83,55.54,55.54,0,0,1-2.88-5.57c-1.44-3.06-2.8-5.94-5-8.23-1.24-1.31-4.34-4.2-6.34-2.8a5.14,5.14,0,0,0-2.11,3.58c-1.21,7.43,7.08,21,11.13,26.77l.67.93-3.23,2.36-.45-.63c-14.54-20.16-22.88-32.54-27-40.1l-.07-.13c-2.89-5.29-5.68-8.05-8.31-8.21a3.32,3.32,0,0,0-1.95.43c-1.55,1-2.24,3.52-1.71,6.38l1.06,5.81-4.37-4A4.39,4.39,0,0,0,108.91,419.58Z"/><circle cx="400.12" cy="346.86" r="4.05"/><circle cx="443.56" cy="346.2" r="4.05"/><path d="M416.14,364.77a2,2,0,0,1-.67-.12c-3-1-6-2.48-6-5.1a3.73,3.73,0,0,1,1.28-2.56,9.9,9.9,0,0,0,.73-.83,8.51,8.51,0,0,0,1.75-4.55l1.68-17.55a2,2,0,1,1,4,.38L417.21,352a12.52,12.52,0,0,1-2.56,6.6c-.31.4-.58.7-.81.95a14,14,0,0,0,3,1.33,2,2,0,0,1-.66,3.89Z"/><path d="M422.18,382.25a17.4,17.4,0,0,1-8.66-2.59,2,2,0,1,1,2.18-3.35c.07.05,4.19,2.64,8.24,1.75a8.39,8.39,0,0,0,5.27-4.05,2,2,0,0,1,3.38,2.14,11.8,11.8,0,0,1-10.41,6.1Z"/><path class="cls-2" d="M355.51,690.67l-17.5-85a86.78,86.78,0,0,1,2.2-43.51l39.1-124.51h34.87l8,17.76c17.17,38.13,71.59,37.31,87.61-1.31l6.82-16.45h30.76L585.9,564.24a90.25,90.25,0,0,1,.71,50.16l-20.88,76.27Z"/><path d="M467.5,313.74H448.18a22.52,22.52,0,0,1-22.52-22.52V276.74H467.5Z"/><path d="M547.37,437.66l41.07,137.17,77.24-45.57A438.58,438.58,0,0,0,637.29,484c-18.31-25.56-27.8-38.47-43.88-45C576.32,432,559.15,434.43,547.37,437.66Z"/><path d="M521.17,335.56h-34.7A25.48,25.48,0,0,1,461,310.07V298.55h60.18Z"/><rect x="449.11" y="276.74" width="59.8" height="37.01"/><circle cx="537.61" cy="427.37" r="47.58"/><circle cx="502.83" cy="472.89" r="35.23"/><circle cx="566.08" cy="474.89" r="35.23"/><path class="cls-4" d="M494.28,629.6H432.39a34.85,34.85,0,0,1-34.81-34.82V552.92A16.92,16.92,0,0,1,414.47,536H512.2a16.92,16.92,0,0,1,16.9,16.9v41.86A34.86,34.86,0,0,1,494.28,629.6ZM414.47,540a12.91,12.91,0,0,0-12.89,12.9v41.86a30.85,30.85,0,0,0,30.81,30.82h61.89a30.85,30.85,0,0,0,30.82-30.82V552.92A12.92,12.92,0,0,0,512.2,540Z"/><circle cx="530.85" cy="520.84" r="35.23"/><path d="M654.45,615.81a2,2,0,0,1-1.65-3.12l22.45-33.17a2,2,0,1,1,3.32,2.24l-22.46,33.17A2,2,0,0,1,654.45,615.81Z"/><path d="M821.43,483a2,2,0,0,1-1.35-3.48c12.31-11.22,20.78-38.52,20.86-38.79a2,2,0,1,1,3.83,1.17c-.36,1.16-8.87,28.61-22,40.58A2,2,0,0,1,821.43,483Z"/><path d="M809,472.18a2,2,0,0,1-1.26-3.56c11.39-9.24,24.19-43.86,24.32-44.2a2,2,0,0,1,3.75,1.37c-.54,1.47-13.31,36-25.55,45.94A2,2,0,0,1,809,472.18Z"/><path d="M292.75,610a2,2,0,0,1-1.65-.87l-22.46-33.18a2,2,0,1,1,3.31-2.24l22.46,33.17a2,2,0,0,1-1.66,3.12Z"/><path d="M125.77,477.16a2,2,0,0,1-1.34-.52c-13.12-12-21.64-39.42-22-40.58a2,2,0,1,1,3.82-1.17c.09.27,8.56,27.57,20.86,38.8a2,2,0,0,1-1.35,3.47Z"/><path d="M138.19,466.33a2,2,0,0,1-1.26-.45c-12.25-9.93-25-44.47-25.56-45.93a2,2,0,0,1,3.76-1.38c.13.35,12.92,35,24.32,44.21a2,2,0,0,1-1.26,3.55Z"/><path class="cls-4" d="M458.25,896.3a2,2,0,0,1-2-2V797.51a2,2,0,0,1,4,0V894.3A2,2,0,0,1,458.25,896.3Z"/><path class="cls-4" d="M458.25,739a2,2,0,0,1-2-2V690.67a2,2,0,0,1,4,0V737A2,2,0,0,1,458.25,739Z"/><path class="cls-4" d="M582.8,742.23a2.07,2.07,0,0,1-.35,0c-24.71-4.34-37.6-18-44.05-28.77a59.27,59.27,0,0,1-8.16-22.56,2,2,0,1,1,4-.4h0a57,57,0,0,0,7.7,21c8.78,14.48,22.65,23.48,41.23,26.75a2,2,0,0,1-.34,4Z"/><path class="cls-4" d="M342.14,744.89a71.42,71.42,0,0,1-8.93-.59,2,2,0,1,1,.51-4c14.88,1.91,26.86-1.07,35.61-8.83,16.17-14.35,16.16-40.55,16.16-40.81a2,2,0,0,1,2-2h0a2,2,0,0,1,2,2c0,1.14,0,28.24-17.49,43.81C364.2,741.4,354.18,744.89,342.14,744.89Z"/><path d="M280.52,525.33l60.34,34.76,38.45-122.43S326,422.8,280.52,525.33Z"/><path d="M305.39,402.65h-155a29.32,29.32,0,0,1-29.29-29.29v-124A29.32,29.32,0,0,1,150.41,220h155a29.32,29.32,0,0,1,29.29,29.29v124A29.32,29.32,0,0,1,305.39,402.65ZM150.41,224a25.32,25.32,0,0,0-25.29,25.29v124a25.32,25.32,0,0,0,25.29,25.29h155a25.31,25.31,0,0,0,25.29-25.29v-124A25.31,25.31,0,0,0,305.39,224Z"/><path d="M317,290.81H264.52a2,2,0,0,1,0-4H317a2,2,0,0,1,0,4Z"/><path d="M317,311.47H264.52a2,2,0,0,1,0-4H317a2,2,0,1,1,0,4Z"/><path d="M303.31,332.12H264.52a2,2,0,0,1,0-4h38.79a2,2,0,1,1,0,4Z"/><path d="M234.51,351.77H166l-6.25-22h79Zm-65.53-4h62.23l2.67-14H165Z"/><path d="M200.94,351.77a2,2,0,0,1-2-2v-18a2,2,0,0,1,4,0v18A2,2,0,0,1,200.94,351.77Z"/><ellipse cx="230.87" cy="349.77" rx="5.44" ry="5.49"/><circle cx="200.9" cy="349.77" r="5.49"/><ellipse cx="169.55" cy="349.77" rx="5.43" ry="5.49"/><path d="M151.8,294.06a2,2,0,0,1-1.6-.79L139,278.46a4.65,4.65,0,0,1,3.71-7.44h34.21a8.34,8.34,0,0,1,6.76,3.46l15.46,16.15a2,2,0,0,1-2.88,2.76L180.45,276.9a4.33,4.33,0,0,0-3.57-1.88H142.67a.63.63,0,0,0-.58.36.64.64,0,0,0,.06.67l11.24,14.8a2,2,0,0,1-.38,2.81A2,2,0,0,1,151.8,294.06Z"/><path class="cls-5" d="M200.94,334.21h37.34l9.32-41.82a4.52,4.52,0,0,0-4.46-5.48h-42.2Z"/><path class="cls-5" d="M160.5,334.21h40.44v-47.3H151a4.67,4.67,0,0,0-4.44,6.16Z"/><line class="cls-4" x1="200.94" y1="326.64" x2="200.94" y2="292.04"/><path d="M200.94,328.64a2,2,0,0,1-2-2V292a2,2,0,0,1,4,0v34.6A2,2,0,0,1,200.94,328.64Z"/><path d="M185.22,735.44H121a12.13,12.13,0,0,1-12.12-12.12V659.11A12.13,12.13,0,0,1,121,647h64.2a12.13,12.13,0,0,1,12.12,12.12v64.21A12.13,12.13,0,0,1,185.22,735.44ZM121,651a8.13,8.13,0,0,0-8.12,8.12v64.21a8.13,8.13,0,0,0,8.12,8.12h64.2a8.13,8.13,0,0,0,8.12-8.12V659.11a8.13,8.13,0,0,0-8.12-8.12Z"/><path d="M138.62,684.21a10.08,10.08,0,1,1,10.07-10.07A10.08,10.08,0,0,1,138.62,684.21Zm0-16.15a6.08,6.08,0,1,0,6.07,6.08A6.08,6.08,0,0,0,138.62,668.06Z"/><path d="M167.62,715.16a10.07,10.07,0,1,1,10.07-10.07A10.08,10.08,0,0,1,167.62,715.16Zm0-16.14a6.07,6.07,0,1,0,6.07,6.07A6.07,6.07,0,0,0,167.62,699Z"/><path d="M134,721.09a2,2,0,0,1-1-.29,2,2,0,0,1-.68-2.74l33.58-55.75a2,2,0,0,1,3.43,2.07l-33.58,55.74A2,2,0,0,1,134,721.09Z"/><path d="M897.92,753.81h-87a22.35,22.35,0,0,1-22.33-22.33V559.31A22.35,22.35,0,0,1,810.88,537h87a22.35,22.35,0,0,1,22.33,22.33V731.48A22.36,22.36,0,0,1,897.92,753.81ZM810.88,541a18.35,18.35,0,0,0-18.33,18.33V731.48a18.35,18.35,0,0,0,18.33,18.33h87a18.35,18.35,0,0,0,18.33-18.33V559.31A18.35,18.35,0,0,0,897.92,541Z"/><rect class="cls-5" x="818.57" y="665.37" width="71.66" height="50.61" rx="9.26"/><path d="M888.36,685.52H820.59a2,2,0,0,1,0-4h67.77a2,2,0,1,1,0,4Z"/><path d="M841.48,709.74h-8.69a7.13,7.13,0,0,1,0-14.25h8.69a7.13,7.13,0,0,1,0,14.25Zm-8.69-10.25a3.13,3.13,0,0,0,0,6.25h8.69a3.13,3.13,0,0,0,0-6.25Z"/><rect class="cls-2" x="815.44" y="575.61" width="77.8" height="50.61" rx="9.26"/><path d="M854.34,613.7a12.82,12.82,0,1,1,12.82-12.82A12.83,12.83,0,0,1,854.34,613.7Zm0-21.64a8.82,8.82,0,1,0,8.82,8.82A8.83,8.83,0,0,0,854.34,592.06Z"/><path d="M822.77,613.7h-7.33v-4h7.33a8,8,0,0,0,0-15.9h-7.33v-4h7.33a12,12,0,0,1,0,23.9Z"/><path d="M893.36,613.76H886a12,12,0,0,1,0-23.91h7.33v4H886a8,8,0,0,0,0,15.91h7.33Z"/><path d="M906.76,409.81H661.67a29,29,0,0,1-28.92-28.91V230.72a29,29,0,0,1,28.92-28.92H906.76a29,29,0,0,1,28.92,28.92V380.9A29,29,0,0,1,906.76,409.81Zm-245.09-204a25,25,0,0,0-24.92,24.92V380.9a24.94,24.94,0,0,0,24.92,24.91H906.76a24.94,24.94,0,0,0,24.92-24.91V230.72a25,25,0,0,0-24.92-24.92Z"/><rect class="cls-5" x="669.01" y="242.04" width="105.64" height="119.04" rx="14.35"/><rect x="719.83" y="305.81" width="4" height="55.28"/><rect class="cls-2" x="797.35" y="244.54" width="28.72" height="28.72" rx="5.05"/><rect class="cls-2" x="837.63" y="244.54" width="28.72" height="28.72" rx="5.05"/><rect class="cls-2" x="877.92" y="244.54" width="28.72" height="28.72" rx="5.05"/><path d="M906.65,301.42H799.34a2,2,0,0,1,0-4H906.65a2,2,0,0,1,0,4Z"/><path d="M906.65,322.59H799.34a2,2,0,0,1,0-4H906.65a2,2,0,0,1,0,4Z"/><path d="M869.3,343.76h-70a2,2,0,1,1,0-4h70a2,2,0,0,1,0,4Z"/><path class="cls-6" d="M741.75,305.81H701.67a3.19,3.19,0,0,1-3.19-3.2V282.34a1.81,1.81,0,0,1,1.81-1.81h42.83a1.81,1.81,0,0,1,1.82,1.81v20.27A3.19,3.19,0,0,1,741.75,305.81Z"/><ellipse cx="721.71" cy="280.53" rx="23.23" ry="7.26"/><path class="cls-4" d="M562.59,692.67h-204a2,2,0,0,1,0-4h204a2,2,0,0,1,0,4Z"/></svg>