<svg id="Layer_1" data-name="Layer 1" xmlns="http://www.w3.org/2000/svg" viewBox="0 0 1000 1000"><defs><style>.cls-1{fill:#fff;}.cls-2{fill:#c7b8f8;}.cls-3{fill:#6dc8c2;}.cls-4{fill:#ffbb45;}.cls-5{fill:#fb6d6d;}.cls-6{fill:#ffc1eb;}</style></defs><rect x="500.19" y="781.01" width="107.14" height="18.55" rx="4.08" transform="translate(-79.2 61.89) rotate(-5.97)"/><path d="M608.33,722.25l-69.17-.45-94,46.31a12.83,12.83,0,0,0-5.89,17.07l171.53-25.46Z"/><path class="cls-1" d="M609.1,760.41,441.46,785.92a12.68,12.68,0,0,0,13.08,7.13l144.12-18.61a12.1,12.1,0,0,0,10.52-12.77Z"/><path d="M452.89,795.16a14.65,14.65,0,0,1-13.24-8.39l-1.16-2.43L611,758.11l.22,3.43a14.13,14.13,0,0,1-12.27,14.88L454.79,795A15.16,15.16,0,0,1,452.89,795.16Zm-8.09-7.73a10.69,10.69,0,0,0,9.48,3.64L598.4,772.46a10.13,10.13,0,0,0,8.8-9.73Z"/><path class="cls-1" d="M529.12,754.37a2,2,0,0,1-1.47-.65l-15.2-16.48a2,2,0,0,1,.12-2.83,2,2,0,0,1,2.82.11L530.59,751a2,2,0,0,1-.11,2.83A2,2,0,0,1,529.12,754.37Z"/><path class="cls-1" d="M513.64,763.39a2,2,0,0,1-1.47-.64L497,746.26a2,2,0,1,1,2.94-2.71L515.11,760a2,2,0,0,1-.12,2.83A2,2,0,0,1,513.64,763.39Z"/><path class="cls-2" d="M594.65,728.87h-42a23.41,23.41,0,0,1-23.41-23.41V467.15h88.82V705.46A23.42,23.42,0,0,1,594.65,728.87Z"/><path d="M847.14,847.34H660.37a2,2,0,0,1,0-4H847.14a2,2,0,0,1,0,4Z"/><path d="M304.3,847.05H230.71a2,2,0,0,1,0-4H304.3a2,2,0,0,1,0,4Z"/><path d="M804,813.49H724.79a2,2,0,0,1,0-4H804a2,2,0,0,1,0,4Z"/><path d="M745.3,624.4a2,2,0,0,1-1.25-3.56l51.13-41a2,2,0,1,1,2.5,3.12l-51.13,41A2,2,0,0,1,745.3,624.4Z"/><rect class="cls-1" x="588.53" y="286.52" width="79.84" height="58" rx="9.93"/><path d="M658.43,346.52h-60a11.94,11.94,0,0,1-11.93-11.93V296.45a11.94,11.94,0,0,1,11.93-11.93h60a12,12,0,0,1,11.94,11.93v38.14A12,12,0,0,1,658.43,346.52Zm-60-58a7.94,7.94,0,0,0-7.93,7.93v38.14a7.94,7.94,0,0,0,7.93,7.93h60a7.94,7.94,0,0,0,7.94-7.93V296.45a7.94,7.94,0,0,0-7.94-7.93Z"/><rect class="cls-1" x="651.44" y="260.91" width="79.84" height="58" rx="9.93" transform="translate(94.61 743.7) rotate(-60)"/><path d="M692.86,337.35a11.86,11.86,0,0,1-5.94-1.6l-33-19.07a11.93,11.93,0,0,1-4.37-16.3l30-51.93a11.91,11.91,0,0,1,16.3-4.37l33,19.06a11.95,11.95,0,0,1,4.37,16.31l-30,51.93A11.94,11.94,0,0,1,692.86,337.35Zm-3.94-5.06a7.94,7.94,0,0,0,10.83-2.91l30-51.93a7.94,7.94,0,0,0-2.9-10.84l-33-19.07A7.94,7.94,0,0,0,683,250.45l-30,51.93a7.92,7.92,0,0,0,2.9,10.84Z"/><path d="M695.56,289a2,2,0,0,1-.93-3.77l35.75-18.75a2,2,0,0,1,1.86,3.55l-35.75,18.74A2,2,0,0,1,695.56,289Z"/><rect class="cls-1" x="632.03" y="294.73" width="79.84" height="58" rx="9.93" transform="translate(-45.01 529.36) rotate(-41.73)"/><path d="M662.27,369.85c-.23,0-.46,0-.69,0a11.84,11.84,0,0,1-8.23-4h0L628,337.4a11.93,11.93,0,0,1,1-16.85l44.76-39.92a11.95,11.95,0,0,1,16.85,1l25.38,28.46a11.93,11.93,0,0,1-1,16.85L670.2,366.82A11.83,11.83,0,0,1,662.27,369.85Zm19.35-88.24a7.86,7.86,0,0,0-5.27,2l-44.76,39.91a7.94,7.94,0,0,0-.64,11.21l25.39,28.46a7.93,7.93,0,0,0,11.2.64l44.76-39.92a7.93,7.93,0,0,0,.64-11.2l-25.39-28.46a7.88,7.88,0,0,0-5.46-2.64Z"/><path d="M655.18,710.6H655L491.54,696.93l-.47-.38L274.69,526.12a2.17,2.17,0,0,1,1.35-3.89H591.1L668,694.17a2,2,0,0,1-3.66,1.63L588.5,526.23H281.28L493.08,693l162.26,13.57a2,2,0,0,1-.16,4Z"/><path d="M492.31,697a2,2,0,0,1-1-.26,2,2,0,0,1-.75-2.73L609,486.46a2,2,0,1,1,3.47,2L494.05,696A2,2,0,0,1,492.31,697Z"/><path d="M503.52,698.24l-65.56,22-73.81,74.33a12.82,12.82,0,0,0-2.23,15.07,13,13,0,0,0,2.21,3l153.94-79.82Z"/><path class="cls-1" d="M426.69,768a2,2,0,0,1-.95-.24L406,757.14a2,2,0,0,1,1.9-3.52l19.73,10.65a2,2,0,0,1-.95,3.76Z"/><path class="cls-2" d="M762.4,460.08H619.48v-131a12,12,0,0,1,11.94-11.95h119a11.94,11.94,0,0,1,11.94,11.95Z"/><path d="M490,240.5H432a16.61,16.61,0,0,1-16.61-16.61V200.5a16.37,16.37,0,0,1,16.37-16.37h57.87A19.36,19.36,0,0,1,509,203.49v18A19,19,0,0,1,490,240.5Z"/><rect x="421.46" y="769.04" width="107.14" height="18.55" rx="4.08" transform="translate(-283.86 272.83) rotate(-24.94)"/><path class="cls-1" d="M516.65,734.08,366.4,812.68a12.69,12.69,0,0,0,14.69,2.5l130.24-64.44a12.1,12.1,0,0,0,5.81-15.5Z"/><path d="M375.45,818.5A14.61,14.61,0,0,1,365,814.08l-1.89-1.92L517.66,731.3l1.32,3.17a14.13,14.13,0,0,1-6.76,18.06L382,817A14.67,14.67,0,0,1,375.45,818.5Zm-5.4-5.47a10.68,10.68,0,0,0,10.15.35L510.45,749a10.15,10.15,0,0,0,5.16-12.07Z"/><path class="cls-1" d="M438.4,754.46a1.92,1.92,0,0,1-.95-.24l-19.73-10.65a2,2,0,0,1,1.9-3.52l19.73,10.65a2,2,0,0,1-1,3.76Z"/><path class="cls-2" d="M489.6,710.6l-39.77,13.48a23.41,23.41,0,0,1-29.69-14.66L362.35,538.87a44.41,44.41,0,0,1,27.81-56.31h0a44.41,44.41,0,0,1,56.31,27.81l57.79,170.54A23.41,23.41,0,0,1,489.6,710.6Z"/><path class="cls-2" d="M619.23,460.23,437,558.91c-26.51,15.37-58.47,9.78-71.37-12.48h0c-12.91-22.26-1.87-52.76,24.64-68.13L571.05,373.5Z"/><path d="M446.33,552.11a2,2,0,0,1-.94-3.76l17.2-9.19a2,2,0,1,1,1.88,3.52l-17.2,9.19A2,2,0,0,1,446.33,552.11Z"/><path d="M529.25,510.3a2,2,0,0,1-.94-3.76l44.4-23.73a2,2,0,1,1,1.89,3.52l-44.41,23.73A2,2,0,0,1,529.25,510.3Z"/><path class="cls-3" d="M661.43,848.64a68.64,68.64,0,0,1-6.86-.34c-26-2.57-48.85-19.52-64.43-47.7-15.35-27.77-21.81-63.24-18.17-99.88s16.92-70.15,37.42-94.36c20.82-24.58,46.57-36.69,72.55-34.12s48.85,19.51,64.43,47.7c15.35,27.76,21.8,63.23,18.17,99.87h0c-3.63,36.64-16.92,70.15-37.42,94.36C708.14,836.59,685.05,848.64,661.43,848.64Zm13.7-269.74c-46.88,0-89.33,53.24-96.2,122.51-3.49,35.24,2.66,69.26,17.33,95.8,14.44,26.11,35.39,41.78,59,44.12,49.27,4.89,95.15-49.94,102.32-122.21s-27.08-135-76.33-139.92Q678.18,578.9,675.13,578.9Z"/><ellipse cx="666.17" cy="706.62" rx="9.68" ry="11.64"/><path class="cls-3" d="M234.14,848.64a68.5,68.5,0,0,1-6.86-.34c-26-2.57-48.86-19.52-64.44-47.7-15.35-27.77-21.8-63.24-18.17-99.88s16.92-70.15,37.42-94.36c20.82-24.58,46.59-36.69,72.55-34.12s48.85,19.51,64.43,47.7c15.35,27.76,21.81,63.23,18.18,99.87S320.32,790,299.82,814.17C280.84,836.59,257.75,848.64,234.14,848.64Zm13.7-269.74c-46.89,0-89.34,53.24-96.2,122.51-3.5,35.24,2.66,69.26,17.33,95.8,14.43,26.11,35.39,41.78,59,44.12a59.67,59.67,0,0,0,6.11.31c46.88,0,89.33-53.24,96.2-122.52,7.16-72.27-27.08-135-76.33-139.92Q250.89,578.9,247.84,578.9Z"/><ellipse cx="238.87" cy="706.62" rx="9.68" ry="11.64"/><path d="M238.88,697a2.15,2.15,0,0,1-.43,0,2,2,0,0,1-1.53-2.38l48.56-226.35a14,14,0,0,1,13.61-11h68.75a2,2,0,0,1,0,4H299.09a10,10,0,0,0-9.7,7.84L240.83,695.4A2,2,0,0,1,238.88,697Z"/><path d="M240.59,422a11,11,0,0,1-10.68-8.46l-21.36-91.14A11,11,0,0,1,219.22,309H334.44a10.94,10.94,0,0,1,10.63,8.28l22,87.36a11,11,0,0,1-10.27,13.63L241,422ZM219.22,313a7,7,0,0,0-6.78,8.55l21.37,91.14a7,7,0,0,0,6.78,5.37h.23l115.84-3.78a7,7,0,0,0,6.52-8.66l-22-87.36a7,7,0,0,0-6.75-5.26Z"/><path d="M334.87,347.33H296.7a2,2,0,0,1,0-4h38.17a2,2,0,0,1,0,4Z"/><path d="M337.7,364.07H299.52a2,2,0,0,1,0-4H337.7a2,2,0,0,1,0,4Z"/><path d="M328.29,380.8H301.78a2,2,0,0,1,0-4h26.51a2,2,0,0,1,0,4Z"/><path class="cls-4" d="M285.81,386.18h-38.6a4.22,4.22,0,0,1-4.08-3.15l-8.41-32.43a4.22,4.22,0,0,1,4.08-5.27h38.6a4.22,4.22,0,0,1,4.08,3.15l8.41,32.43A4.21,4.21,0,0,1,285.81,386.18Z"/><path d="M266,386.28a2,2,0,0,1-2-1.63l-7-37.06a2,2,0,0,1,3.93-.74l7,37.06a2,2,0,0,1-1.6,2.34A2.31,2.31,0,0,1,266,386.28Z"/><path d="M273.64,359.33a3.92,3.92,0,0,1-2.52-.91l-11.93-9.86a2,2,0,1,1,2.54-3.08l11.93,9.85,4.13-10.1a2,2,0,0,1,3.7,1.51l-4.16,10.12a3.93,3.93,0,0,1-2.71,2.35A4.17,4.17,0,0,1,273.64,359.33Z"/><path d="M279.4,385.92a2,2,0,0,1-1.95-1.6L272,357.69a2,2,0,1,1,3.92-.8l5.43,26.63a2,2,0,0,1-1.56,2.36A1.9,1.9,0,0,1,279.4,385.92Z"/><rect class="cls-3" x="656.49" y="433.54" width="185" height="140.47" rx="12.98"/><path d="M807.34,576h0a2,2,0,0,1-2-2l0-75.09a2,2,0,0,1,2-2h0a2,2,0,0,1,2,2l0,75.09A2,2,0,0,1,807.34,576Z"/><rect class="cls-1" x="669.34" y="447.61" width="37.91" height="25.9" rx="5.46"/><path d="M703,489.72H672.46a2,2,0,0,1,0-4H703a2,2,0,0,1,0,4Z"/><path d="M694.93,501.88H672.46a2,2,0,0,1,0-4h22.47a2,2,0,0,1,0,4Z"/><path d="M807.16,500.92c-3.83,0-7.36-2.35-9.47-6.32l-30.17-52.9a2,2,0,0,1,3.48-2l30.19,52.95c1.48,2.78,3.72,4.35,6.11,4.24s4.73-1.82,6.08-4.71l22.22-52.08a2,2,0,1,1,3.68,1.57L817,493.83c-2,4.35-5.62,7-9.62,7.08Z"/><path d="M765.49,575.52h0a2,2,0,0,1-2-2l0-118.27c-.43-18.19,8.89-22.11,9.28-22.26a2,2,0,0,1,1.51,3.7c-.35.16-7.15,3.36-6.8,18.51V573.52A2,2,0,0,1,765.49,575.52Z"/><path d="M647.54,487.72H562.18a9,9,0,0,1-8.95-9h0a8.94,8.94,0,0,1,7.53-8.84l85.36-13.72a9,9,0,0,1,10.37,8.85v13.71A9,9,0,0,1,647.54,487.72Z"/><rect class="cls-4" x="688.3" y="357.55" width="136.63" height="76" rx="14.28"/><path d="M759.58,435a2,2,0,0,1-2-2V357.54a2,2,0,0,1,4,0V433A2,2,0,0,1,759.58,435Z"/><path d="M806.77,403.57H782.94l-25.07-41.45a2,2,0,0,1,3.42-2.07l23.91,39.52h19.09l17.43-34.85a2,2,0,1,1,3.58,1.79Z"/><path d="M761.11,435a2,2,0,0,1-1.61-3.18l23.55-32.21h23.57L824,426.46a2,2,0,1,1-3.36,2.16l-16.16-25.05H785.08l-22.35,30.57A2,2,0,0,1,761.11,435Z"/><rect class="cls-1" x="571.02" y="165.04" width="65.35" height="61.26" rx="11.17"/><path d="M625.2,228.3h-43A13.18,13.18,0,0,1,569,215.13V176.21A13.19,13.19,0,0,1,582.19,163h43a13.19,13.19,0,0,1,13.17,13.17v38.92A13.18,13.18,0,0,1,625.2,228.3Zm-43-61.26a9.19,9.19,0,0,0-9.17,9.17v38.92a9.18,9.18,0,0,0,9.17,9.17h43a9.18,9.18,0,0,0,9.17-9.17V176.21A9.19,9.19,0,0,0,625.2,167Z"/><path class="cls-5" d="M617.67,197h0a15.81,15.81,0,0,0,1.81-8,15.91,15.91,0,0,0-31.8.66,15.83,15.83,0,0,0,1.66,7h0c.31.68.64,1.37,1,2.05a150.9,150.9,0,0,0,9.24,16.45,4.12,4.12,0,0,0,6.85.13q5.82-8.46,11-17.65c.07-.11.13-.23.19-.34l.1-.17C617.62,197.06,617.65,197,617.67,197Z"/><circle class="cls-1" cx="603.58" cy="190.66" r="6.84"/><path class="cls-1" d="M416.93,196.17S405.69,202,411.12,228a15.54,15.54,0,0,1-1,9.47l-1.21,2.71a3.08,3.08,0,0,0,1.23,3.87l3.62,2.15,4.15,16.45s3.21,17.95,23.11,10.58l12.78-4.35,19.89,9.86L504,245.91l-15.43-12.22c5.91-2.09,9.75-7.53,9.52-13.19-.27-6.75-6.14-10.4-6.4-10.55a13.35,13.35,0,0,0-8.94-1.67c-5.46,1-10,5.71-11.48,11.95C471.26,220.23,439.06,239,416.93,196.17Z"/><path d="M474.16,281.24l-20.49-10.16-12,4.08c-6.92,2.56-12.82,2.52-17.49-.15-6.42-3.67-8-11-8.21-11.89L412,247.53l-2.9-1.72a5.06,5.06,0,0,1-2-6.4l1.2-2.71a13.46,13.46,0,0,0,.85-8.25c-5.67-27.26,6.34-33.79,6.85-34.06l1.78-.91.91,1.77c7.26,14,16.33,22.71,27,25.81a34.3,34.3,0,0,0,23.89-2.19c1.92-6.6,6.88-11.48,12.84-12.56a15.47,15.47,0,0,1,10.32,1.92c.29.17,7.05,4.31,7.37,12.18a15.54,15.54,0,0,1-7.76,13.7l14.6,11.57ZM454,266.76l19.29,9.56,27.81-30.18L484.48,233l3.41-1.21c5-1.77,8.39-6.39,8.19-11.23-.23-5.69-5.37-8.88-5.43-8.91a11.37,11.37,0,0,0-7.55-1.42c-4.67.85-8.56,5-9.9,10.47l-.2.83-.74.42a37.8,37.8,0,0,1-27.72,2.94c-11.14-3.25-20.63-11.87-28.23-25.64a14.69,14.69,0,0,0-2.66,4.26c-1.72,4-3.21,11.46-.57,24.11A17.53,17.53,0,0,1,412,238.32L410.76,241a1.07,1.07,0,0,0,.43,1.34l4.32,2.58,4.39,17.39c0,.06,1.23,6.33,6.31,9.22,3.58,2,8.34,2,14.13-.17Z"/><path d="M484,227.91a5.35,5.35,0,1,1,1.71-.29A5.08,5.08,0,0,1,484,227.91Zm0-6.67a1.31,1.31,0,0,0-.43.08,1.3,1.3,0,1,0,.43-.08Z"/><path d="M480.88,225.65a2,2,0,0,1-1.85-1.22,7.88,7.88,0,0,1-.38-5.27c1-3.37,4.4-5.73,8.47-5.88a2,2,0,1,1,.14,4c-2.31.08-4.27,1.32-4.77,3a3.91,3.91,0,0,0,.23,2.59,2,2,0,0,1-1.07,2.62A2.07,2.07,0,0,1,480.88,225.65Z"/><circle cx="433.29" cy="230.38" r="2.86"/><path d="M427.93,257.58a9.75,9.75,0,0,1-1.39-.09,2,2,0,0,1,.66-4c.26,0,5.57.74,9.39-5.18a2,2,0,1,1,3.36,2.17C435.92,256.78,430.46,257.58,427.93,257.58Z"/><path class="cls-3" d="M445.57,164.12h30.37A33.09,33.09,0,0,1,509,197.2v0a0,0,0,0,1,0,0H412.49a0,0,0,0,1,0,0v0A33.09,33.09,0,0,1,445.57,164.12Z"/><path d="M459.76,269.74s1.92-1.63,11.46-19.55l-1.93,24.32Z"/><path class="cls-4" d="M470.67,197.2a81.29,81.29,0,0,1,1.74,33.62,82.25,82.25,0,0,1-18.74,40.26l7,3.53a81.23,81.23,0,0,0,9.24-13c14.45-25.34,11.38-52.07,9.06-64.38Z"/><path d="M469.7,283l35.59-37.77a33.62,33.62,0,0,1,13-9.06c10.76-4.07,22.15-1.38,38.41,6.33a215.2,215.2,0,0,1,36.29,22c22.92,17.06,41,39.93,51.33,66.57,7.79,20.1,12.44,45.1,6.09,72.44-6.47,27.85-21.76,47-31.39,57.09l-68.71-34.5Z"/><path class="cls-1" d="M581.67,387.69a2,2,0,0,1-.47-3.94l32.7-8a2,2,0,1,1,.94,3.88l-32.69,8A2.61,2.61,0,0,1,581.67,387.69Z"/><path d="M576.83,364.16c-11.23-36.21-36-89.21-70.34-92.75-5.22-.53-21.58-2.22-33.42,8a33.66,33.66,0,0,0-5.67,6.43c-10.43,15.35-5.14,34.54-3.75,39.61a60.6,60.6,0,0,0,3.92,10.38q11.1,21.18,22.18,42.37L417.7,402.8a13.13,13.13,0,0,0-5.21,2.33L436.28,460a34.22,34.22,0,0,0,8.91-2.28l108-31.63c8.26-2.42,16.38-9.55,21.14-16.44C583.49,396.38,581.37,378.82,576.83,364.16Z"/><path class="cls-1" d="M544.48,430.31a2,2,0,0,1-.67-3.89l8.47-3a40.17,40.17,0,0,0,25.58-47.9c-1.38-5.44-3-10.89-4.79-16.2a220.26,220.26,0,0,0-16.21-36.59,2,2,0,1,1,3.5-1.94A224.61,224.61,0,0,1,576.86,358c1.83,5.41,3.47,11,4.88,16.49a44.16,44.16,0,0,1-28.11,52.66l-8.47,3A2,2,0,0,1,544.48,430.31Z"/><path d="M751.72,337.47H632.33a2,2,0,0,1,0-4H751.72a2,2,0,0,1,0,4Z"/><path d="M682.51,319.16a2,2,0,0,1-2-2v-37.5a2,2,0,0,1,4,0v37.5A2,2,0,0,1,682.51,319.16Z"/><path class="cls-1" d="M409.45,416.8l-34.25,13c-1.52.58-3.07,1.08-4.62,1.58-3.37,1.08-12.11,5.6-12.83,23.35,0,0-1,20.53,12.09,19.87,0,0,7.56,12.74,16.49,7.67,0,0,12.77,7.14,15.68-6.5q4.73-4.15,9.54-8.63c5.12-4.77,9.95-9.51,14.52-14.17Z"/><path d="M393.33,486.17a17.89,17.89,0,0,1-7-1.62c-7.51,3.41-14.41-3.12-17.61-7.9a10.86,10.86,0,0,1-7.53-3.24c-6-6-5.48-18.22-5.46-18.74.76-18.82,10.2-23.86,14.22-25.15,1.62-.53,3.08-1,4.52-1.55l36-13.7,18,39.15-1,1c-4.73,4.82-9.63,9.61-14.59,14.23-3,2.79-6,5.56-9.09,8.24-1,4.21-3.09,7-6.13,8.41A10.59,10.59,0,0,1,393.33,486.17Zm-7-6.15,1,.55c.05,0,5.06,2.75,8.75,1.07,2-.9,3.3-3,4-6.25l.14-.65.49-.44c3.18-2.79,6.37-5.68,9.5-8.59,4.57-4.26,9.1-8.67,13.48-13.12l-15.26-33.25-32.5,12.37c-1.53.58-3,1.07-4.72,1.61-3.22,1-10.78,5.21-11.44,21.53,0,.12-.45,11,4.28,15.74a7.18,7.18,0,0,0,5.71,2.05l1.2-.06.62,1a24,24,0,0,0,4.54,5.28c3.3,2.78,6.33,3.33,9.25,1.67Z"/><path d="M369.84,476.64a2,2,0,0,1-1.84-1.22c-.21-.49-5-12.1-1-22.52a2,2,0,0,1,3.74,1.43c-3.41,8.93.94,19.43,1,19.53a2,2,0,0,1-1.06,2.62A2,2,0,0,1,369.84,476.64Z"/><path d="M387.59,484a2,2,0,0,1-1-.27c-6.19-3.56-9.77-9.86-10.34-18.22a38.26,38.26,0,0,1,1-11.38,2,2,0,1,1,3.86,1c0,.19-4.66,18.1,7.5,25.1a2,2,0,0,1-1,3.73Z"/><path d="M402,477.81a1.74,1.74,0,0,1-.45-.06c-12.55-2.87-12.73-18.22-11.07-25.94a2,2,0,0,1,3.91.84c0,.19-3.79,18.49,8,21.21a2,2,0,0,1-.44,3.95Z"/><path d="M506,192H415.2a2,2,0,0,1,0-4H506a2,2,0,0,1,0,4Z"/><rect class="cls-6" x="724.68" y="294.22" width="72.92" height="63.33" rx="10.26"/><path class="cls-5" d="M795.72,319.16H726.49a2,2,0,0,1,0-4h69.23a2,2,0,0,1,0,4Z"/><path class="cls-5" d="M761.15,359.54a2,2,0,0,1-2-2V294.22a2,2,0,1,1,4,0v63.32A2,2,0,0,1,761.15,359.54Z"/><path class="cls-5" d="M759.05,299.77l.1-3.28c.77-25.63,8.93-34,15.65-36.52h0a11.43,11.43,0,0,1,9.41.64,10.87,10.87,0,0,1,5.5,7.1c3.6,15.42-26.42,30-27.7,30.64Zm17.15-36.06c-5.29,2-11.67,8.76-12.9,29.49,9-4.91,24.64-15.49,22.52-24.58a6.81,6.81,0,0,0-3.5-4.49,7.45,7.45,0,0,0-6.12-.42Z"/><path class="cls-5" d="M762.11,299.77l-3-1.42c-1.28-.61-31.3-15.22-27.7-30.64a10.87,10.87,0,0,1,5.5-7.1,11.43,11.43,0,0,1,9.41-.64h0c6.72,2.51,14.89,10.89,15.65,36.52Zm-19.73-36.53a7.5,7.5,0,0,0-3.54.89,6.81,6.81,0,0,0-3.5,4.49c-2.12,9.1,13.48,19.68,22.53,24.58-1.24-20.73-7.62-27.51-12.91-29.49A7.4,7.4,0,0,0,742.38,263.24Z"/><path class="cls-3" d="M408.64,423.83,421,451.42s2.6,9.81,15.26,8.54l-23.79-54.83C409,407.72,405.56,413.05,408.64,423.83Z"/><path class="cls-1" d="M489.23,378.59a2,2,0,0,1-.62-3.9l26-8.57a2,2,0,0,1,1.25,3.8l-26,8.56A2,2,0,0,1,489.23,378.59Z"/><rect x="656.49" y="571.01" width="183.17" height="14.39" rx="7.2"/><rect class="cls-1" x="262.56" y="196.1" width="94.16" height="32.42" rx="16.21"/><path d="M340.51,230.53H278.77a18.22,18.22,0,0,1,0-36.43h61.74a18.22,18.22,0,0,1,0,36.43ZM278.77,198.1a14.22,14.22,0,0,0,0,28.43h61.74a14.22,14.22,0,0,0,0-28.43Z"/><circle class="cls-3" cx="283.99" cy="212.31" r="5.28"/><circle class="cls-3" cx="309.64" cy="212.31" r="5.28"/><circle class="cls-3" cx="335.29" cy="212.31" r="5.28"/></svg>