<svg id="Layer_1" data-name="Layer 1" xmlns="http://www.w3.org/2000/svg" xmlns:xlink="http://www.w3.org/1999/xlink" viewBox="0 0 1000 1000"><defs><style>.cls-1{fill:none;}.cls-2{fill:#c7b8f8;}.cls-3{fill:#fff;}.cls-4{fill:#6dc8c2;}.cls-5{fill:#ffbb45;}.cls-6{fill:#ffc1eb;}.cls-7{clip-path:url(#clip-path);}.cls-8{fill:#fb6d6d;}</style><clipPath id="clip-path"><path class="cls-1" d="M240.39,452.78H363.53a65.09,65.09,0,0,0-123.14,0Z"/></clipPath></defs><path class="cls-2" d="M595.26,148.63H769.68A38.39,38.39,0,0,1,808.07,187V571a41.64,41.64,0,0,1-41.64,41.64H661.74a174.3,174.3,0,0,1,2.89-48.33c15.4-75.69,77.8-118,97-130a175.49,175.49,0,0,1-60.92-21.53c-116.21-67.88-106.22-251-105.32-264.18"/><path d="M808.07,457.48a2.08,2.08,0,0,1-.68-.12,209.14,209.14,0,0,1-47.15-24.28C715.45,402.13,683.91,354,666.5,290c-11.89-43.71-14.27-84.1-14.16-110.29a2,2,0,0,1,2-2h0a2,2,0,0,1,2,2c-.11,25.94,2.24,65.94,14,109.22,17.16,63.05,48.17,110.43,92.16,140.83a204.6,204.6,0,0,0,46.24,23.81,2,2,0,0,1-.69,3.88Z"/><path d="M808.08,457.48a2,2,0,0,1-1.63-.84,372.73,372.73,0,0,1-34.74-59.36,376.74,376.74,0,0,1-34.52-138.1,2,2,0,0,1,4-.23,372.52,372.52,0,0,0,34.16,136.63,367.48,367.48,0,0,0,34.36,58.73,2,2,0,0,1-.46,2.79A1.94,1.94,0,0,1,808.08,457.48Z"/><path class="cls-2" d="M474.61,148.63H300.2A38.4,38.4,0,0,0,261.8,187V571a41.64,41.64,0,0,0,41.64,41.64H408.13a173.92,173.92,0,0,0-2.89-48.33c-15.4-75.69-77.8-118-97-130a175.49,175.49,0,0,0,60.92-21.53c116.21-67.88,106.22-251,105.33-264.18"/><path d="M261.8,457.48a2,2,0,0,1-.69-3.88,204.6,204.6,0,0,0,46.24-23.81c44-30.4,75-77.78,92.16-140.83,11.78-43.28,14.13-83.28,14-109.22a2,2,0,0,1,2-2h0a2,2,0,0,1,2,2c.11,26.19-2.26,66.58-14.16,110.29C386,354,354.42,402.13,309.63,433.08a209.14,209.14,0,0,1-47.15,24.28A2,2,0,0,1,261.8,457.48Z"/><path d="M261.8,457.48a2,2,0,0,1-1.17-.38,2,2,0,0,1-.46-2.79,368.29,368.29,0,0,0,34.37-58.73A372.71,372.71,0,0,0,328.69,259a2,2,0,0,1,4,.23,376.9,376.9,0,0,1-34.53,138.1,372.42,372.42,0,0,1-34.74,59.36A2,2,0,0,1,261.8,457.48Z"/><path class="cls-2" d="M771.41,614.68H300.08A39.7,39.7,0,0,1,260.42,575V186.28a39.7,39.7,0,0,1,39.66-39.65H771.41a39.7,39.7,0,0,1,39.66,39.65V575A39.7,39.7,0,0,1,771.41,614.68Zm-471.33-464a35.7,35.7,0,0,0-35.66,35.65V575a35.7,35.7,0,0,0,35.66,35.66H771.41A35.7,35.7,0,0,0,807.07,575V186.28a35.7,35.7,0,0,0-35.66-35.65Z"/><path d="M488.45,373.15c-24.42,20.94-32.63,51.67-21.89,74,7.37,15.31,21.62,22.46,27.92,25.13l61.44-14.82-15.47-60Z"/><path d="M411,761.63H138.29a2,2,0,1,1,0-4H411a2,2,0,0,1,0,4Z"/><path d="M655.1,298c17.94,56.85,43.22,79.82,64,90,12,5.88,27.25,9.82,40.57,25.07,14.38,16.47,18.37,36.8,19.42,51.75L632.43,452.7,602.1,308.09Z"/><path d="M532.21,244.53h45.31a76.38,76.38,0,0,1,76.38,76.38V340a0,0,0,0,1,0,0H471.72a0,0,0,0,1,0,0V305A60.49,60.49,0,0,1,532.21,244.53Z" transform="translate(-44.8 110.65) rotate(-10.8)"/><path class="cls-3" d="M636.17,357.8a24,24,0,0,0-25.7-21.89l-6.1-32.11c-4-21.5-24.42-35.65-45.5-31.6l-58.53,11.26c-15.87,3.06-26.25,18.66-23.2,34.85l13.6,72.14c4.84,25.62,29.11,42.48,54.21,37.65l2.71-.52,7.55,40,77.32-14.88-8.93-47.36-.08,0-4.11-22A24.16,24.16,0,0,0,636.17,357.8Z"/><path d="M553.61,469.91l-7.54-40-.74.14a47.38,47.38,0,0,1-35.83-7.45,49.17,49.17,0,0,1-20.72-31.79l-13.61-72.14C471.92,301.43,483,284.75,500,281.5l58.54-11.26a40.11,40.11,0,0,1,30.31,6.3,41.57,41.57,0,0,1,17.53,26.89l5.77,30.4h.29a26.2,26.2,0,0,1,25.77,23.78h0a26.26,26.26,0,0,1-16.48,27.05l3.45,18.43.42,1.87,9.3,49.32Zm-4.35-44.67,7.54,40,73.39-14.11L622,407.67h0l-.44-2-4.45-23.77,1.72-.52A22.2,22.2,0,0,0,634.18,358c-1.16-12.06-11.74-21.08-23.55-20.09l-1.79.15-6.43-33.87a37.6,37.6,0,0,0-15.85-24.33,36.07,36.07,0,0,0-27.31-5.68l-58.53,11.26c-14.77,2.84-24.46,17.42-21.62,32.51l13.61,72.14a45.14,45.14,0,0,0,19,29.22,43.44,43.44,0,0,0,32.83,6.84Z"/><path d="M613.05,369.74a8.08,8.08,0,1,1,8.05-8.85h0a8.08,8.08,0,0,1-7.26,8.81A7.09,7.09,0,0,1,613.05,369.74Zm0-12.16-.4,0a4.07,4.07,0,0,0-2.76,1.47,4.07,4.07,0,0,0,3.54,6.65,4.08,4.08,0,0,0,3.67-4.45h0a4.12,4.12,0,0,0-1.47-2.76A4.06,4.06,0,0,0,613.07,357.58Z"/><path d="M547.51,425.67l46.71-10.37a1.29,1.29,0,0,1,.95,2.36L550.3,439.51Z"/><path d="M607.52,366.18a2,2,0,0,1-1.91-1.41,14.41,14.41,0,0,1,3.22-14c5.13-5.47,12.19-4.42,13-4.28a2,2,0,1,1-.69,3.94c-.23,0-5.6-.93-9.36,3.08a10.38,10.38,0,0,0-2.32,10.1,2,2,0,0,1-1.33,2.5A1.93,1.93,0,0,1,607.52,366.18Z"/><circle cx="500.78" cy="361.86" r="4.68"/><circle cx="546.88" cy="352.31" r="4.68"/><path d="M522.53,378.28l-.29,0c-3.52-.51-7.18-1.39-7.69-4.18a4,4,0,0,1,.83-3c.19-.3.41-.66.65-1.13a10.19,10.19,0,0,0,1-5.72L515,344a2,2,0,1,1,4-.4l2,20.28a14.16,14.16,0,0,1-1.38,7.89c-.33.64-.61,1.09-.84,1.47l0,.07a14.53,14.53,0,0,0,4.07,1,2,2,0,0,1-.28,4Z"/><path d="M530.5,398a20.84,20.84,0,0,1-7-1.26A2,2,0,0,1,525,393c.08,0,5.46,2.11,10,.13a10,10,0,0,0,5.23-6,2,2,0,0,1,3.74,1.43,13.91,13.91,0,0,1-7.39,8.2A15.1,15.1,0,0,1,530.5,398Z"/><path class="cls-4" d="M433.06,771.5l107.37,2.79,230.31,6q-32.65-169.92-65.3-339.83a1518.44,1518.44,0,0,0-184.35,23.09c-1.28.24-6.88,1-14.32,2.43-23.65,4.7-59.1,11.74-76.47,31.2-16.07,18-14.69,44.39-13.37,64.57C421.07,625,426.17,694.75,433.06,771.5Z"/><circle cx="652.69" cy="237.39" r="38.7"/><path class="cls-4" d="M858.73,789.29l-138,36.57L633.66,449.78,701.58,440a101.6,101.6,0,0,1,114.35,82.06Z"/><path class="cls-4" d="M639.8,470l-88.79,14-6.87-37.26a6.37,6.37,0,0,1,5.07-7.42l73.2-14a6.38,6.38,0,0,1,7.39,4.71Z"/><path class="cls-4" d="M724.53,592.6h39.08a50.88,50.88,0,0,1,50.88,50.88V819a55.57,55.57,0,0,1-55.57,55.57h0a85.26,85.26,0,0,1-85.26-85.26V643.48A50.88,50.88,0,0,1,724.53,592.6Z" transform="translate(-281.41 533.07) rotate(-33.53)"/><line class="cls-3" x1="571.63" y1="436.71" x2="575.26" y2="461.33"/><path d="M575.25,463.33a2,2,0,0,1-2-1.71L569.65,437a2,2,0,1,1,4-.58L577.24,461a2,2,0,0,1-1.69,2.27Z"/><line class="cls-3" x1="599.11" y1="431.44" x2="602.74" y2="456.06"/><path d="M602.74,458.06a2,2,0,0,1-2-1.71l-3.63-24.62a2,2,0,1,1,4-.58l3.63,24.62A2,2,0,0,1,603,458Z"/><path d="M825.26,730.64a2,2,0,0,1-1.67-.9L755.68,627.26c-3.26-5.4-12.6-18.37-29.7-23.75a52.85,52.85,0,0,0-26.09-1.3,2,2,0,1,1-.79-3.92,56.69,56.69,0,0,1,28.07,1.41c18.41,5.78,28.43,19.71,31.89,25.42l67.86,102.41a2,2,0,0,1-.56,2.77A2,2,0,0,1,825.26,730.64Z"/><path d="M688.94,779.9a2,2,0,0,1-1.67-.9l-38.16-57.59c-1.55-2.35-3.28-4.8-5.44-7.71-15.36-20.73-17.6-34.16-17.79-35.48-6.33-30.2,11.39-43,12.15-43.5a2,2,0,0,1,2.3,3.28c-.7.49-16.32,11.94-10.52,39.47l0,.15c0,.13,1.91,13.26,17,33.7,2.2,3,4,5.47,5.56,7.88l38.17,57.59a2,2,0,0,1-1.67,3.11Z"/><path d="M543.19,841H402.06l-8-41.87H555.1Zm-137.82-4h134.8l9.63-33.87H398.88Z"/><path d="M471.05,841a2,2,0,0,1-2-2V801.16a2,2,0,0,1,4,0V839A2,2,0,0,1,471.05,841Z"/><ellipse cx="407.93" cy="839.04" rx="11.47" ry="11.57"/><circle cx="471.14" cy="839.04" r="11.57"/><ellipse cx="537.29" cy="839.04" rx="11.46" ry="11.57"/><path d="M583.18,713a1.94,1.94,0,0,1-1.2-.41,2,2,0,0,1-.39-2.8l23.72-31.25a3.58,3.58,0,0,0-2.88-5.71H530.27a11.4,11.4,0,0,0-9.37,4.9l-10.34,14.91a2,2,0,1,1-3.29-2.28l10.34-14.91a15.41,15.41,0,0,1,12.66-6.62h72.16a7.58,7.58,0,0,1,6.08,12.12l-23.73,31.26A2,2,0,0,1,583.18,713Z"/><path class="cls-3" d="M407.66,779.08l-31.6-85.46a10.5,10.5,0,0,1,6.2-13.48l47.56-17.59a10.49,10.49,0,0,1,13.48,6.21l29.51,79.81a16.52,16.52,0,0,1-9.76,21.21l-41.91,15.5A10.49,10.49,0,0,1,407.66,779.08Z"/><path d="M417.49,787.94a12.57,12.57,0,0,1-11.71-8.17l-31.6-85.46a12.48,12.48,0,0,1,7.39-16l47.56-17.59a12.5,12.5,0,0,1,16.05,7.38l29.51,79.81a18.52,18.52,0,0,1-10.94,23.78l-41.92,15.5A12.33,12.33,0,0,1,417.49,787.94Zm16-124a8.58,8.58,0,0,0-3,.53L383,682a8.49,8.49,0,0,0-5,10.91l31.6,85.45a8.5,8.5,0,0,0,10.91,5l41.92-15.5a14.51,14.51,0,0,0,8.58-18.64l-29.52-79.81a8.49,8.49,0,0,0-7.95-5.55Z"/><path class="cls-3" d="M523,780l-80.58-42.52A10.5,10.5,0,0,1,438,723.26l23.67-44.85A10.5,10.5,0,0,1,475.87,674l75.25,39.71a16.52,16.52,0,0,1,6.9,22.31l-20.86,39.53A10.49,10.49,0,0,1,523,780Z"/><path d="M527.86,783.17a12.43,12.43,0,0,1-5.81-1.44l-80.58-42.52a12.5,12.5,0,0,1-5.21-16.88l23.66-44.85a12.51,12.51,0,0,1,16.88-5.22L552.06,712a18.54,18.54,0,0,1,7.73,25l-20.86,39.52A12.49,12.49,0,0,1,527.86,783.17Zm-3.94-5a8.5,8.5,0,0,0,11.47-3.55l20.86-39.52a14.54,14.54,0,0,0-6.06-19.61L474.93,675.8a8.49,8.49,0,0,0-11.47,3.55L439.79,724.2a8.51,8.51,0,0,0,3.55,11.47Z"/><path class="cls-2" d="M573.56,706.42H385.17a9.29,9.29,0,0,0-9.08,11.29l19,86.16H554l28.67-84.75A9.62,9.62,0,0,0,573.56,706.42Z"/><path d="M471.05,792.25a2,2,0,0,1-2-2v-73a2,2,0,0,1,4,0v73A2,2,0,0,1,471.05,792.25Z"/><path d="M503.63,690.68a2,2,0,0,1-2-1.86l-3-43.71a2,2,0,0,1,1.85-2.13,2,2,0,0,1,2.14,1.85l3,43.71a2,2,0,0,1-1.85,2.14Z"/><path class="cls-3" d="M483.5,647.71A21.73,21.73,0,0,1,461.9,628l-4.07-45a21.72,21.72,0,0,1,19.64-23.6L590.4,548.7l6.15,66.93a21.7,21.7,0,0,1-19.63,23.6l-91.42,8.39C484.83,647.68,484.16,647.71,483.5,647.71Zm103.29-94.65L477.84,563.35a17.71,17.71,0,0,0-16,19.26l4.06,45a17.73,17.73,0,0,0,19.25,16l91.42-8.39a17.71,17.71,0,0,0,16-19.25Z"/><path class="cls-3" d="M599,574.17H568.58a28.16,28.16,0,0,0-6.34.67c-4.2,1-9.52,3.29-7.3,8.7a9.67,9.67,0,0,0,5.44,5.21c10.16,4,46.08,18.58,54.06,26.58l25.74,22,59.55-35A245.26,245.26,0,0,0,672,559.75c-10.2-12.57-22.65-28.17-37.38-35.52-8.07-4-17.6-4.15-26.33-2.8a259.2,259.2,0,0,0-31.34,6.88c-9,2.6-18.21,5.41-25,12.29l-10.07,9.16a3,3,0,0,0,2.33,5.27l43.34-4.11a10.68,10.68,0,0,1,10.72,6.19l4.87,10.66A4.52,4.52,0,0,1,599,574.17Z"/><path d="M641.28,558.92a2,2,0,0,1-1.79-1.1c-8-16.14-17.64-24.38-24.29-28.46-7.17-4.41-12.52-5-12.58-5a2,2,0,0,1,.41-4c1,.1,23.64,2.77,40,35.69a2,2,0,0,1-.9,2.68A1.91,1.91,0,0,1,641.28,558.92Z"/><path class="cls-3" d="M480.49,593.44a2,2,0,0,1-.21-4l78.88-8.4a2,2,0,0,1,.42,4l-78.88,8.4Z"/><path class="cls-3" d="M483.47,614.44a2,2,0,0,1-.21-4l78.88-8.4a2,2,0,1,1,.42,4l-78.88,8.4Z"/><circle class="cls-4" cx="167.38" cy="311.01" r="19.01"/><circle class="cls-5" cx="188.69" cy="420.46" r="34.36"/><path d="M179.91,389.71a5.87,5.87,0,0,1-2.55-.58,6,6,0,0,1-3.21-3.91L162,336.93a5.94,5.94,0,0,1,8.31-6.82l57.34,27.24a5.94,5.94,0,0,1,0,10.75l-45.15,21h0A5.93,5.93,0,0,1,179.91,389.71Zm-12.2-56.19a2,2,0,0,0-1.23.45,1.93,1.93,0,0,0-.65,2L178,384.24a1.93,1.93,0,0,0,2.7,1.28h0l45.15-21a1.95,1.95,0,0,0,0-3.52l-57.34-27.24A2,2,0,0,0,167.71,333.52Z"/><path d="M378.89,456.82H135a2,2,0,1,1,0-4H378.89a2,2,0,0,1,0,4Z"/><path class="cls-6" d="M240.39,452.78H363.53a65.09,65.09,0,0,0-123.14,0Z"/><g class="cls-7"><path class="cls-8" d="M320.55,434.8a33.63,33.63,0,1,1,33.63-33.63A33.67,33.67,0,0,1,320.55,434.8Zm0-62.41a28.78,28.78,0,1,0,28.78,28.78A28.82,28.82,0,0,0,320.55,372.39Z"/><path class="cls-8" d="M264.15,491.6a44.53,44.53,0,0,1-10-1.23c-11.71-2.74-24-9.78-34.49-19.83s-18.13-22-21.4-33.53c-3.4-12-1.76-22.32,4.61-29,12.8-13.41,41.17-7.19,63.23,13.88h0c10.53,10.05,18.13,22,21.41,33.53,3.4,12,1.76,22.32-4.61,29C278.32,489.16,271.86,491.6,264.15,491.6Zm-42.53-86c-6.24,0-11.59,1.85-15.3,5.74-5.14,5.38-6.36,14-3.45,24.32,3,10.75,10.18,21.89,20.09,31.35s21.36,16.07,32.24,18.61c10.43,2.43,19,.81,24.14-4.58s6.37-14,3.45-24.32c-3-10.75-10.17-21.88-20.08-31.35C249.39,412.69,233.81,405.63,221.62,405.63Z"/></g><path d="M246.23,688a2,2,0,0,1-1.94-1.56c-5.33-23.22,1.09-50.19,7.42-68.71a236.88,236.88,0,0,1,15.11-34.9,2,2,0,1,1,3.49,1.95,233.37,233.37,0,0,0-14.83,34.31c-6.15,18-12.41,44.17-7.3,66.46a2,2,0,0,1-1.5,2.39A1.74,1.74,0,0,1,246.23,688Z"/><path d="M250.51,685.69a1.37,1.37,0,0,1-.29,0,2,2,0,0,1-1.69-2.27,72.18,72.18,0,0,1,22-42.32,2,2,0,0,1,2.74,2.92,68.14,68.14,0,0,0-20.83,40A2,2,0,0,1,250.51,685.69Z"/><path d="M246.73,710a2,2,0,0,1-2-1.84,385.62,385.62,0,0,0-12-68.88,386.14,386.14,0,0,0-22.62-61.92,2,2,0,1,1,3.62-1.69,389.93,389.93,0,0,1,22.86,62.56,389.14,389.14,0,0,1,12.16,69.61,2,2,0,0,1-1.83,2.15Z"/><path class="cls-3" d="M205.15,641.59a206.41,206.41,0,0,1,22.67,25.17,207.42,207.42,0,0,1,13.07,19.3"/><path d="M240.89,688.06a2,2,0,0,1-1.72-1A205.84,205.84,0,0,0,203.78,643a2,2,0,1,1,2.75-2.91A208.66,208.66,0,0,1,242.6,685a2,2,0,0,1-1.71,3Z"/><path class="cls-6" d="M292.78,570.87h-6.87c-.13-.35-.28-.7-.44-1l5-4.45a5.3,5.3,0,1,0-7-7.94l-5.29,4.68c-.09.08-.15.17-.23.25-.33-.16-.67-.29-1-.42v-6.42a5.31,5.31,0,0,0-10.61,0V562a14,14,0,0,0-1.43.61,5.9,5.9,0,0,0-.49-.51L259,557.43a5.3,5.3,0,1,0-6.93,8l5.36,4.62a1.7,1.7,0,0,0,.14.1c-.1.23-.18.46-.27.69h-6.65a5.3,5.3,0,0,0-5.3,5.3h0a5.3,5.3,0,0,0,5.3,5.31h6.59c.05.15.1.3.16.44l-.05,0-5.3,4.69a5.3,5.3,0,1,0,7,7.94l5.3-4.68.11-.12a15.17,15.17,0,0,0,1.79.79v6.36a5.31,5.31,0,0,0,10.61,0v-6.36c.37-.14.73-.29,1.09-.45l5.19,4.47a5.3,5.3,0,0,0,6.93-8l-4.62-4a10.73,10.73,0,0,0,.45-1.11h6.81a5.3,5.3,0,0,0,5.3-5.31h0A5.3,5.3,0,0,0,292.78,570.87Z"/><path class="cls-6" d="M292.78,570.87h-6.87c-.13-.35-.28-.7-.44-1l5-4.45a5.3,5.3,0,1,0-7-7.94l-5.29,4.68c-.09.08-.15.17-.23.25-.33-.16-.67-.29-1-.42v-6.42a5.31,5.31,0,0,0-10.61,0V562a14,14,0,0,0-1.43.61,5.9,5.9,0,0,0-.49-.51L259,557.43a5.3,5.3,0,1,0-6.93,8l5.36,4.62a1.7,1.7,0,0,0,.14.1c-.1.23-.18.46-.27.69h-6.65a5.3,5.3,0,0,0-5.3,5.3h0a5.3,5.3,0,0,0,5.3,5.31h6.59c.05.15.1.3.16.44l-.05,0-5.3,4.69a5.3,5.3,0,1,0,7,7.94l5.3-4.68.11-.12a15.17,15.17,0,0,0,1.79.79v6.36a5.31,5.31,0,0,0,10.61,0v-6.36c.37-.14.73-.29,1.09-.45l5.19,4.47a5.3,5.3,0,0,0,6.93-8l-4.62-4a10.73,10.73,0,0,0,.45-1.11h6.81a5.3,5.3,0,0,0,5.3-5.31h0A5.3,5.3,0,0,0,292.78,570.87Z"/><path class="cls-6" d="M292.78,570.87h-6.87c-.13-.35-.28-.7-.44-1l5-4.45a5.3,5.3,0,1,0-7-7.94l-5.29,4.68c-.09.08-.15.17-.23.25-.33-.16-.67-.29-1-.42v-6.42a5.31,5.31,0,0,0-10.61,0V562a14,14,0,0,0-1.43.61,5.9,5.9,0,0,0-.49-.51L259,557.43a5.3,5.3,0,1,0-6.93,8l5.36,4.62a1.7,1.7,0,0,0,.14.1c-.1.23-.18.46-.27.69h-6.65a5.3,5.3,0,0,0-5.3,5.3h0a5.3,5.3,0,0,0,5.3,5.31h6.59c.05.15.1.3.16.44l-.05,0-5.3,4.69a5.3,5.3,0,1,0,7,7.94l5.3-4.68.11-.12a15.17,15.17,0,0,0,1.79.79v6.36a5.31,5.31,0,0,0,10.61,0v-6.36c.37-.14.73-.29,1.09-.45l5.19,4.47a5.3,5.3,0,0,0,6.93-8l-4.62-4a10.73,10.73,0,0,0,.45-1.11h6.81a5.3,5.3,0,0,0,5.3-5.31h0A5.3,5.3,0,0,0,292.78,570.87Z"/><path class="cls-6" d="M292.78,570.87h-6.87c-.13-.35-.28-.7-.44-1l5-4.45a5.3,5.3,0,1,0-7-7.94l-5.29,4.68c-.09.08-.15.17-.23.25-.33-.16-.67-.29-1-.42v-6.42a5.31,5.31,0,0,0-10.61,0V562a14,14,0,0,0-1.43.61,5.9,5.9,0,0,0-.49-.51L259,557.43a5.3,5.3,0,1,0-6.93,8l5.36,4.62a1.7,1.7,0,0,0,.14.1c-.1.23-.18.46-.27.69h-6.65a5.3,5.3,0,0,0-5.3,5.3h0a5.3,5.3,0,0,0,5.3,5.31h6.59c.05.15.1.3.16.44l-.05,0-5.3,4.69a5.3,5.3,0,1,0,7,7.94l5.3-4.68.11-.12a15.17,15.17,0,0,0,1.79.79v6.36a5.31,5.31,0,0,0,10.61,0v-6.36c.37-.14.73-.29,1.09-.45l5.19,4.47a5.3,5.3,0,0,0,6.93-8l-4.62-4a10.73,10.73,0,0,0,.45-1.11h6.81a5.3,5.3,0,0,0,5.3-5.31h0A5.3,5.3,0,0,0,292.78,570.87Z"/><path class="cls-6" d="M292.78,570.87h-6.87c-.13-.35-.28-.7-.44-1l5-4.45a5.3,5.3,0,1,0-7-7.94l-5.29,4.68c-.09.08-.15.17-.23.25-.33-.16-.67-.29-1-.42v-6.42a5.31,5.31,0,0,0-10.61,0V562a14,14,0,0,0-1.43.61,5.9,5.9,0,0,0-.49-.51L259,557.43a5.3,5.3,0,1,0-6.93,8l5.36,4.62a1.7,1.7,0,0,0,.14.1c-.1.23-.18.46-.27.69h-6.65a5.3,5.3,0,0,0-5.3,5.3h0a5.3,5.3,0,0,0,5.3,5.31h6.59c.05.15.1.3.16.44l-.05,0-5.3,4.69a5.3,5.3,0,1,0,7,7.94l5.3-4.68.11-.12a15.17,15.17,0,0,0,1.79.79v6.36a5.31,5.31,0,0,0,10.61,0v-6.36c.37-.14.73-.29,1.09-.45l5.19,4.47a5.3,5.3,0,0,0,6.93-8l-4.62-4a10.73,10.73,0,0,0,.45-1.11h6.81a5.3,5.3,0,0,0,5.3-5.31h0A5.3,5.3,0,0,0,292.78,570.87Z"/><path class="cls-6" d="M292.78,570.87h-6.87c-.13-.35-.28-.7-.44-1l5-4.45a5.3,5.3,0,1,0-7-7.94l-5.29,4.68c-.09.08-.15.17-.23.25-.33-.16-.67-.29-1-.42v-6.42a5.31,5.31,0,0,0-10.61,0V562a14,14,0,0,0-1.43.61,5.9,5.9,0,0,0-.49-.51L259,557.43a5.3,5.3,0,1,0-6.93,8l5.36,4.62a1.7,1.7,0,0,0,.14.1c-.1.23-.18.46-.27.69h-6.65a5.3,5.3,0,0,0-5.3,5.3h0a5.3,5.3,0,0,0,5.3,5.31h6.59c.05.15.1.3.16.44l-.05,0-5.3,4.69a5.3,5.3,0,1,0,7,7.94l5.3-4.68.11-.12a15.17,15.17,0,0,0,1.79.79v6.36a5.31,5.31,0,0,0,10.61,0v-6.36c.37-.14.73-.29,1.09-.45l5.19,4.47a5.3,5.3,0,0,0,6.93-8l-4.62-4a10.73,10.73,0,0,0,.45-1.11h6.81a5.3,5.3,0,0,0,5.3-5.31h0A5.3,5.3,0,0,0,292.78,570.87Z"/><path class="cls-6" d="M292.78,570.87h-6.87c-.13-.35-.28-.7-.44-1l5-4.45a5.3,5.3,0,1,0-7-7.94l-5.29,4.68c-.09.08-.15.17-.23.25-.33-.16-.67-.29-1-.42v-6.42a5.31,5.31,0,0,0-10.61,0V562a14,14,0,0,0-1.43.61,5.9,5.9,0,0,0-.49-.51L259,557.43a5.3,5.3,0,1,0-6.93,8l5.36,4.62a1.7,1.7,0,0,0,.14.1c-.1.23-.18.46-.27.69h-6.65a5.3,5.3,0,0,0-5.3,5.3h0a5.3,5.3,0,0,0,5.3,5.31h6.59c.05.15.1.3.16.44l-.05,0-5.3,4.69a5.3,5.3,0,1,0,7,7.94l5.3-4.68.11-.12a15.17,15.17,0,0,0,1.79.79v6.36a5.31,5.31,0,0,0,10.61,0v-6.36c.37-.14.73-.29,1.09-.45l5.19,4.47a5.3,5.3,0,0,0,6.93-8l-4.62-4a10.73,10.73,0,0,0,.45-1.11h6.81a5.3,5.3,0,0,0,5.3-5.31h0A5.3,5.3,0,0,0,292.78,570.87Z"/><path class="cls-6" d="M221.4,629.16l-6.08,3.19q-.42-.37-.87-.72l2.39-6.28a5.3,5.3,0,1,0-9.92-3.76l-2.51,6.61a3,3,0,0,0-.09.32c-.37,0-.73.06-1.1.1l-3-5.67a5.31,5.31,0,0,0-9.4,4.93l3,5.68a14.48,14.48,0,0,0-1,1.21,3.78,3.78,0,0,0-.67-.23l-6.89-1.6a5.3,5.3,0,1,0-2.4,10.33l6.89,1.6a1,1,0,0,0,.17,0c0,.25.05.5.08.74l-5.88,3.09a5.31,5.31,0,0,0-2.23,7.16h0a5.29,5.29,0,0,0,7.16,2.23l5.83-3.06.35.32,0,.06L192.71,662a5.31,5.31,0,0,0,9.92,3.77l2.51-6.62c0-.05,0-.1,0-.15a16.13,16.13,0,0,0,2-.13l3,5.62a5.31,5.31,0,0,0,9.4-4.93l-3-5.63c.26-.29.52-.59.76-.9l6.67,1.55a5.31,5.31,0,0,0,2.4-10.34l-5.94-1.38c0-.39-.06-.79-.11-1.19l6-3.16a5.31,5.31,0,0,0,2.23-7.16h0A5.29,5.29,0,0,0,221.4,629.16Z"/><path class="cls-6" d="M221.4,629.16l-6.08,3.19q-.42-.37-.87-.72l2.39-6.28a5.3,5.3,0,1,0-9.92-3.76l-2.51,6.61a3,3,0,0,0-.09.32c-.37,0-.73.06-1.1.1l-3-5.67a5.31,5.31,0,0,0-9.4,4.93l3,5.68a14.48,14.48,0,0,0-1,1.21,3.78,3.78,0,0,0-.67-.23l-6.89-1.6a5.3,5.3,0,1,0-2.4,10.33l6.89,1.6a1,1,0,0,0,.17,0c0,.25.05.5.08.74l-5.88,3.09a5.31,5.31,0,0,0-2.23,7.16h0a5.29,5.29,0,0,0,7.16,2.23l5.83-3.06.35.32,0,.06L192.71,662a5.31,5.31,0,0,0,9.92,3.77l2.51-6.62c0-.05,0-.1,0-.15a16.13,16.13,0,0,0,2-.13l3,5.62a5.31,5.31,0,0,0,9.4-4.93l-3-5.63c.26-.29.52-.59.76-.9l6.67,1.55a5.31,5.31,0,0,0,2.4-10.34l-5.94-1.38c0-.39-.06-.79-.11-1.19l6-3.16a5.31,5.31,0,0,0,2.23-7.16h0A5.29,5.29,0,0,0,221.4,629.16Z"/><path class="cls-6" d="M221.4,629.16l-6.08,3.19q-.42-.37-.87-.72l2.39-6.28a5.3,5.3,0,1,0-9.92-3.76l-2.51,6.61a3,3,0,0,0-.09.32c-.37,0-.73.06-1.1.1l-3-5.67a5.31,5.31,0,0,0-9.4,4.93l3,5.68a14.48,14.48,0,0,0-1,1.21,3.78,3.78,0,0,0-.67-.23l-6.89-1.6a5.3,5.3,0,1,0-2.4,10.33l6.89,1.6a1,1,0,0,0,.17,0c0,.25.05.5.08.74l-5.88,3.09a5.31,5.31,0,0,0-2.23,7.16h0a5.29,5.29,0,0,0,7.16,2.23l5.83-3.06.35.32,0,.06L192.71,662a5.31,5.31,0,0,0,9.92,3.77l2.51-6.62c0-.05,0-.1,0-.15a16.13,16.13,0,0,0,2-.13l3,5.62a5.31,5.31,0,0,0,9.4-4.93l-3-5.63c.26-.29.52-.59.76-.9l6.67,1.55a5.31,5.31,0,0,0,2.4-10.34l-5.94-1.38c0-.39-.06-.79-.11-1.19l6-3.16a5.31,5.31,0,0,0,2.23-7.16h0A5.29,5.29,0,0,0,221.4,629.16Z"/><path class="cls-6" d="M221.4,629.16l-6.08,3.19q-.42-.37-.87-.72l2.39-6.28a5.3,5.3,0,1,0-9.92-3.76l-2.51,6.61a3,3,0,0,0-.09.32c-.37,0-.73.06-1.1.1l-3-5.67a5.31,5.31,0,0,0-9.4,4.93l3,5.68a14.48,14.48,0,0,0-1,1.21,3.78,3.78,0,0,0-.67-.23l-6.89-1.6a5.3,5.3,0,1,0-2.4,10.33l6.89,1.6a1,1,0,0,0,.17,0c0,.25.05.5.08.74l-5.88,3.09a5.31,5.31,0,0,0-2.23,7.16h0a5.29,5.29,0,0,0,7.16,2.23l5.83-3.06.35.32,0,.06L192.71,662a5.31,5.31,0,0,0,9.92,3.77l2.51-6.62c0-.05,0-.1,0-.15a16.13,16.13,0,0,0,2-.13l3,5.62a5.31,5.31,0,0,0,9.4-4.93l-3-5.63c.26-.29.52-.59.76-.9l6.67,1.55a5.31,5.31,0,0,0,2.4-10.34l-5.94-1.38c0-.39-.06-.79-.11-1.19l6-3.16a5.31,5.31,0,0,0,2.23-7.16h0A5.29,5.29,0,0,0,221.4,629.16Z"/><path class="cls-6" d="M221.4,629.16l-6.08,3.19q-.42-.37-.87-.72l2.39-6.28a5.3,5.3,0,1,0-9.92-3.76l-2.51,6.61a3,3,0,0,0-.09.32c-.37,0-.73.06-1.1.1l-3-5.67a5.31,5.31,0,0,0-9.4,4.93l3,5.68a14.48,14.48,0,0,0-1,1.21,3.78,3.78,0,0,0-.67-.23l-6.89-1.6a5.3,5.3,0,1,0-2.4,10.33l6.89,1.6a1,1,0,0,0,.17,0c0,.25.05.5.08.74l-5.88,3.09a5.31,5.31,0,0,0-2.23,7.16h0a5.29,5.29,0,0,0,7.16,2.23l5.83-3.06.35.32,0,.06L192.71,662a5.31,5.31,0,0,0,9.92,3.77l2.51-6.62c0-.05,0-.1,0-.15a16.13,16.13,0,0,0,2-.13l3,5.62a5.31,5.31,0,0,0,9.4-4.93l-3-5.63c.26-.29.52-.59.76-.9l6.67,1.55a5.31,5.31,0,0,0,2.4-10.34l-5.94-1.38c0-.39-.06-.79-.11-1.19l6-3.16a5.31,5.31,0,0,0,2.23-7.16h0A5.29,5.29,0,0,0,221.4,629.16Z"/><path class="cls-6" d="M221.4,629.16l-6.08,3.19q-.42-.37-.87-.72l2.39-6.28a5.3,5.3,0,1,0-9.92-3.76l-2.51,6.61a3,3,0,0,0-.09.32c-.37,0-.73.06-1.1.1l-3-5.67a5.31,5.31,0,0,0-9.4,4.93l3,5.68a14.48,14.48,0,0,0-1,1.21,3.78,3.78,0,0,0-.67-.23l-6.89-1.6a5.3,5.3,0,1,0-2.4,10.33l6.89,1.6a1,1,0,0,0,.17,0c0,.25.05.5.08.74l-5.88,3.09a5.31,5.31,0,0,0-2.23,7.16h0a5.29,5.29,0,0,0,7.16,2.23l5.83-3.06.35.32,0,.06L192.71,662a5.31,5.31,0,0,0,9.92,3.77l2.51-6.62c0-.05,0-.1,0-.15a16.13,16.13,0,0,0,2-.13l3,5.62a5.31,5.31,0,0,0,9.4-4.93l-3-5.63c.26-.29.52-.59.76-.9l6.67,1.55a5.31,5.31,0,0,0,2.4-10.34l-5.94-1.38c0-.39-.06-.79-.11-1.19l6-3.16a5.31,5.31,0,0,0,2.23-7.16h0A5.29,5.29,0,0,0,221.4,629.16Z"/><path class="cls-6" d="M221.4,629.16l-6.08,3.19q-.42-.37-.87-.72l2.39-6.28a5.3,5.3,0,1,0-9.92-3.76l-2.51,6.61a3,3,0,0,0-.09.32c-.37,0-.73.06-1.1.1l-3-5.67a5.31,5.31,0,0,0-9.4,4.93l3,5.68a14.48,14.48,0,0,0-1,1.21,3.78,3.78,0,0,0-.67-.23l-6.89-1.6a5.3,5.3,0,1,0-2.4,10.33l6.89,1.6a1,1,0,0,0,.17,0c0,.25.05.5.08.74l-5.88,3.09a5.31,5.31,0,0,0-2.23,7.16h0a5.29,5.29,0,0,0,7.16,2.23l5.83-3.06.35.32,0,.06L192.71,662a5.31,5.31,0,0,0,9.92,3.77l2.51-6.62c0-.05,0-.1,0-.15a16.13,16.13,0,0,0,2-.13l3,5.62a5.31,5.31,0,0,0,9.4-4.93l-3-5.63c.26-.29.52-.59.76-.9l6.67,1.55a5.31,5.31,0,0,0,2.4-10.34l-5.94-1.38c0-.39-.06-.79-.11-1.19l6-3.16a5.31,5.31,0,0,0,2.23-7.16h0A5.29,5.29,0,0,0,221.4,629.16Z"/><circle class="cls-5" cx="206.87" cy="559.21" r="19.56"/><circle class="cls-5" cx="273.5" cy="641.59" r="13.83"/><path class="cls-3" d="M269.76,715.63l.9-25.28a5.6,5.6,0,0,0-5.59-5.8H224.46a5.59,5.59,0,0,0-5.58,5.85l1.06,23.77a13.58,13.58,0,0,1-6.61,12.29A62.64,62.64,0,1,0,308,780.27c0-23.56-12.77-42.89-31.95-53.35A12.33,12.33,0,0,1,269.76,715.63Z"/><path d="M245.4,844.91c-.52,0-1.05,0-1.58,0A64.64,64.64,0,0,1,212.3,724.75,11.61,11.61,0,0,0,218,714.26l-1.07-23.77a7.59,7.59,0,0,1,7.58-7.94h40.61a7.62,7.62,0,0,1,7.59,7.87l-.91,25.28a10.39,10.39,0,0,0,5.29,9.46c20.66,11.27,33,31.87,33,55.11a64.64,64.64,0,0,1-64.63,64.64ZM224.46,686.55a3.61,3.61,0,0,0-3.59,3.76l1.07,23.77a15.58,15.58,0,0,1-7.59,14.1,60.63,60.63,0,0,0,29.57,112.71A60.64,60.64,0,0,0,306,780.27c0-21.75-11.55-41-30.9-51.6a14.39,14.39,0,0,1-7.37-13.11l.9-25.28a3.6,3.6,0,0,0-3.59-3.73Z"/><circle class="cls-3" cx="271.73" cy="576.51" r="7.02"/><circle class="cls-3" cx="204.34" cy="643.7" r="7.02"/><path class="cls-3" d="M209.05,831.21c2.44-2.81,13.61-15,32.19-16.67,23.78-2.15,39.3,14.77,41,16.67"/><path d="M280.73,832.53c-1.65-1.85-16.71-18-39.31-16-16.58,1.49-27.11,11.68-30.87,16l-3-2.63c4.07-4.67,15.49-15.72,33.52-17.34,24.06-2.17,39.76,14.05,42.66,17.33Z"/><path d="M629.4,334.51l-40.87,8a29.42,29.42,0,0,1-31.06-27.68L556.9,305l62.24-12.75Z"/><path d="M485.89,273.22H625.43a0,0,0,0,1,0,0v43.39a0,0,0,0,1,0,0H529.28a43.39,43.39,0,0,1-43.39-43.39v0a0,0,0,0,1,0,0Z" transform="translate(-45.42 109.35) rotate(-10.8)"/></svg>