<svg id="Layer_1" data-name="Layer 1" xmlns="http://www.w3.org/2000/svg" xmlns:xlink="http://www.w3.org/1999/xlink" viewBox="0 0 1000 1000"><defs><style>.cls-1{fill:none;}.cls-2{fill:#c7b8f8;}.cls-3{fill:#6dc8c2;}.cls-4{fill:#ffbb45;}.cls-5{fill:#ffc1eb;}.cls-6{clip-path:url(#clip-path);}.cls-7{fill:#fb6d6d;}.cls-8{fill:#fff;}</style><clipPath id="clip-path"><path class="cls-1" d="M635.93,431.76h67.76a35.82,35.82,0,0,0-67.76,0Z"/></clipPath></defs><rect class="cls-2" x="120.69" y="750.28" width="761.83" height="179.75"/><path d="M653.55,871.46a1.51,1.51,0,0,1-.3,0,2,2,0,0,1-1.68-2.28L743,264.74a19.08,19.08,0,0,0-18.86-21.93H612.85a19.07,19.07,0,0,0-18.78,15.7L485.64,861.68a2,2,0,1,1-3.93-.71L590.14,257.8a23.05,23.05,0,0,1,22.71-19H724.09a23.08,23.08,0,0,1,22.82,26.53L655.53,869.76A2,2,0,0,1,653.55,871.46Z"/><path d="M718.63,435.75H560.54a2,2,0,0,1,0-4H718.63a2,2,0,1,1,0,4Z"/><path d="M689.52,633.57h-164a2,2,0,0,1,0-4h164a2,2,0,0,1,0,4Z"/><path d="M811.22,871.46a2,2,0,0,1-2-1.76L739.86,285.5a2,2,0,1,1,4-.48l69.38,584.21a2,2,0,0,1-1.75,2.22Z"/><circle class="cls-3" cx="594.14" cy="351.63" r="10.82"/><circle class="cls-2" cx="670.15" cy="393.52" r="14.01"/><circle class="cls-4" cx="606.27" cy="413.94" r="19.56"/><path d="M602.42,396.59a6,6,0,0,1-5.76-4.49l-5.56-22a5.94,5.94,0,0,1,8.31-6.82l26.13,12.41a5.94,5.94,0,0,1,0,10.75L604.93,396A6,6,0,0,1,602.42,396.59Zm-5.56-29.9a2,2,0,0,0-1.23.45,1.91,1.91,0,0,0-.65,2l5.56,22a1.94,1.94,0,0,0,2.7,1.29l20.57-9.59a1.95,1.95,0,0,0,0-3.52l-26.13-12.41A2,2,0,0,0,596.86,366.69Z"/><path class="cls-5" d="M635.93,431.76h67.76a35.82,35.82,0,0,0-67.76,0Z"/><g class="cls-6"><path class="cls-7" d="M680,422.53a19.17,19.17,0,1,1,19.17-19.17A19.19,19.19,0,0,1,680,422.53Zm0-34.34a15.17,15.17,0,1,0,15.17,15.17A15.19,15.19,0,0,0,680,388.19Z"/><path class="cls-7" d="M649,453.79a24.9,24.9,0,0,1-5.69-.7c-6.56-1.53-13.41-5.46-19.28-11.07s-10.13-12.27-12-18.75c-1.94-6.86-1-12.75,2.69-16.6s9.52-5.08,16.45-3.46c6.56,1.53,13.41,5.46,19.29,11.08s10.13,12.27,12,18.75c1.94,6.85,1,12.74-2.7,16.59C657.16,452.38,653.44,453.79,649,453.79Zm-23.46-47.28a10.53,10.53,0,0,0-7.88,2.92c-2.66,2.79-3.28,7.31-1.74,12.75,1.64,5.8,5.5,11.82,10.87,16.94s11.56,8.71,17.43,10.08c5.5,1.28,10,.46,12.65-2.33s3.28-7.31,1.74-12.74c-1.64-5.81-5.5-11.83-10.87-16.95h0c-5.37-5.13-11.56-8.71-17.44-10.08A21.26,21.26,0,0,0,625.55,406.51Z"/></g><path d="M604.3,556.4a2,2,0,0,1-1.88-1.31c-7.33-20-22.48-36.21-22.63-36.37A2,2,0,0,1,582.7,516c.65.68,15.86,17,23.48,37.73a2,2,0,0,1-1.19,2.57A2.09,2.09,0,0,1,604.3,556.4Z"/><path d="M611.5,558.47a2,2,0,0,1-2-2V539.05a2,2,0,0,1,4,0v17.42A2,2,0,0,1,611.5,558.47Z"/><path class="cls-3" d="M649,582.67h0a15.7,15.7,0,0,0-15.7-15.7h-3.5V555.1H586.49V567H583a15.7,15.7,0,0,0-15.7,15.7h0a15.7,15.7,0,0,0,15.7,15.7,15.7,15.7,0,0,0-15.7,15.69h0a15.7,15.7,0,0,0,15.7,15.7h50.28a15.7,15.7,0,0,0,15.7-15.7h0a15.7,15.7,0,0,0-15.7-15.69A15.7,15.7,0,0,0,649,582.67Z"/><rect x="616.2" y="596.44" width="17.73" height="4"/><rect x="582.05" y="596.34" width="9.29" height="4"/><ellipse cx="608.14" cy="554.2" rx="22.04" ry="4.59"/><circle class="cls-4" cx="611.5" cy="528.66" r="10.4"/><circle class="cls-4" cx="577.5" cy="513.1" r="11.14"/><rect x="478.99" y="814.44" width="92.2" height="11.55" rx="4.02" transform="translate(-296.16 296.74) rotate(-24.86)"/><path class="cls-8" d="M564.58,773l-38,10-51.34,23.78L484,825.69a7.19,7.19,0,0,0,9.54,3.5l67.57-31.31Z"/><path d="M555.82,812.35l43.22-20a6.62,6.62,0,0,0,3.21-8.77h0a27.12,27.12,0,0,0-36-13.21h0a27.12,27.12,0,0,0-13.21,36Z"/><path d="M328.64,885.47a2,2,0,0,1-2-1.73L299.73,684.92a2,2,0,0,1,4-.54L330.62,883.2a2,2,0,0,1-1.71,2.25Z"/><path d="M182.67,885.47l-.28,0a2,2,0,0,1-1.7-2.26L208.8,684.37a2,2,0,0,1,4,.56L184.65,883.75A2,2,0,0,1,182.67,885.47Z"/><path d="M318.69,819.57H193.75a2,2,0,0,1,0-4H318.69a2,2,0,0,1,0,4Z"/><rect class="cls-5" x="179.94" y="637.73" width="148.7" height="46.92" rx="13.82" transform="translate(508.58 1322.38) rotate(-180)"/><path d="M189.49,583.73H313.56V533H198.07a104.34,104.34,0,0,0-8,27.26A97.32,97.32,0,0,0,189.49,583.73Z"/><rect x="350.59" y="872.5" width="92.2" height="11.55" rx="4.02"/><path class="cls-8" d="M452.38,852l-38.69-6.9H357.11V866a7.19,7.19,0,0,0,7.19,7.19h74.47Z"/><path d="M500.35,805.66l23.26-17A33.79,33.79,0,0,0,531,741.5L429.15,601.84A49.55,49.55,0,0,0,359.92,591h0a49.55,49.55,0,0,0-10.84,69.23L449.3,797.67A36.54,36.54,0,0,0,500.35,805.66Z"/><path d="M258.65,654.84h177V620.06a50.45,50.45,0,0,0-50.45-50.45H189.35v15.93A69.3,69.3,0,0,0,258.65,654.84Z"/><path d="M373.05,850h28.78a33.78,33.78,0,0,0,33.78-33.78V650.57h-99.1V813.46A36.53,36.53,0,0,0,373.05,850Z"/><path class="cls-8" d="M488.47,806.35a2,2,0,0,1-1.64-.84L431.7,727.28A2,2,0,1,1,435,725L490.1,803.2a2,2,0,0,1-.48,2.79A2,2,0,0,1,488.47,806.35Z"/><path class="cls-8" d="M367.89,851.62a2,2,0,0,1-2-2V646.44a24.39,24.39,0,0,0-24.37-24.37H263.74a34.86,34.86,0,0,1-34.82-34.82V569.61a2,2,0,0,1,4,0v17.64a30.85,30.85,0,0,0,30.82,30.82h77.78a28.41,28.41,0,0,1,28.37,28.37V849.62A2,2,0,0,1,367.89,851.62Z"/><path d="M427.87,884.05h47.64a6.6,6.6,0,0,0,6.6-6.6h0A27.12,27.12,0,0,0,455,850.33h0a27.12,27.12,0,0,0-27.12,27.12Z"/><path class="cls-8" d="M433.33,780.07a2,2,0,0,1-2-2V613.81a2,2,0,0,1,4,0V778.07A2,2,0,0,1,433.33,780.07Z"/><path class="cls-8" d="M369.5,583.73l56.71-81.13s48-1.72,65.93-37.87a10.14,10.14,0,0,0,1.16-3.65,10.43,10.43,0,0,0-.92-5.6,20,20,0,0,0,2-2.79c1.32-2.23,2.6-4.42,1.24-7a4.86,4.86,0,0,0-6.31-2.34c1.2-2.34,1.18-4.75-.07-6.14a3.64,3.64,0,0,0-1.93-1.11c-3.51-.83-7.43,3.14-8.55,4.24-4.52,4.47-13.39,11.63-26.31,21.53,0,0,18.48-13.87,13-20.87-1.65-2.09-4.75-.79-6.56.24-3.34,1.92-5.43,5.3-8.23,7.8a31.73,31.73,0,0,1-12.56,6.54c-7.34,2.07-14.79,2.09-21.86,5.19a42.27,42.27,0,0,0-9,5.31c-3.24,2.53-5.19,6.07-8.14,8.72l-45.52,40.79Z"/><path d="M368.58,588.55l-17.26-73.67,39.29-35.2c4.32-3.87,6.21-5.56,7.17-6.31l-.06-.06a33.62,33.62,0,0,0,3.36-3.71,30.86,30.86,0,0,1,4.89-5.11,44.36,44.36,0,0,1,9.43-5.56c4.49-2,9.1-2.76,13.57-3.52a83,83,0,0,0,8.54-1.76,29.55,29.55,0,0,0,11.78-6.12,37.86,37.86,0,0,0,2.77-2.86,23.69,23.69,0,0,1,5.79-5.17c5.56-3.18,8.24-.89,9.13.25a6.84,6.84,0,0,1,1.39,5.34,10.41,10.41,0,0,1-.52,2.12c4.31-3.53,7.43-6.25,9.51-8.3,1.51-1.5,5.89-5.83,10.41-4.77a5.73,5.73,0,0,1,3,1.73,6.41,6.41,0,0,1,1.38,5.1,7.07,7.07,0,0,1,5.27,3.77c1.89,3.6.12,6.58-1.29,9a21.7,21.7,0,0,1-1.43,2.11,12.37,12.37,0,0,1,.62,5.5,12.05,12.05,0,0,1-1.39,4.35c-7.52,15.21-21.63,26.79-40.78,33.44a104,104,0,0,1-25.83,5.43Zm-12.82-72.27,14.67,62.63,54.71-78.28,1,0c.47,0,47.07-2.12,64.22-36.76a8.21,8.21,0,0,0,.21-7.51l-.54-1.17.84-1a17.07,17.07,0,0,0,1.79-2.51c1.43-2.4,2-3.6,1.2-5.06a2.86,2.86,0,0,0-3.68-1.46l-5.34,2.55,2.7-5.27c.79-1.55.88-3.16.22-3.91a1.74,1.74,0,0,0-.9-.49c-1.08-.25-3.1.18-6.61,3.65l-.07.07C475.9,446,467.91,452.52,454.3,463l-.65.5-2.42-3.19.62-.47c3.77-2.95,11.9-10.23,12.55-15.23a2.93,2.93,0,0,0-.56-2.35c-.8-1-3.47.45-4,.75a20.69,20.69,0,0,0-4.81,4.37,40,40,0,0,1-3.08,3.18,33.41,33.41,0,0,1-13.35,7,83.65,83.65,0,0,1-9,1.87c-4.42.75-8.59,1.46-12.63,3.23a40.07,40.07,0,0,0-8.58,5.06,27.53,27.53,0,0,0-4.26,4.48,36.44,36.44,0,0,1-3.77,4.15Z"/><path class="cls-8" d="M492,455.93s-11.3,16.92-22.22,22.17"/><path d="M470.65,479.9l-1.74-3.61c10.31-5,21.31-21.31,21.42-21.47l3.33,2.22C493.19,457.75,481.93,474.48,470.65,479.9Z"/><path class="cls-8" d="M489.31,443.34s-15.72,21-25.64,25.05"/><path d="M464.44,470.24l-1.53-3.7c9.3-3.82,24.65-24.19,24.8-24.39l3.2,2.39C490.25,445.42,474.74,466,464.44,470.24Z"/><path d="M263.58,360l22.14-2.3a38.27,38.27,0,0,0,34.11-42l-2.14-20.53a34,34,0,0,0-37.36-30.32l-17.22,1.79A47.26,47.26,0,0,0,221,318.5l.79,7.58A38.06,38.06,0,0,0,263.58,360Z"/><path class="cls-8" d="M238.92,333.46a13,13,0,0,1,10.68-14.93,14.13,14.13,0,0,1,1.82-.16L248.3,284.3,297,281.5a20.32,20.32,0,0,1,21.2,17l1,6a32.3,32.3,0,0,0,7.43,15.86l0,0a4.92,4.92,0,0,1-.12,6.7l-3.07,3.15,2.1,12.69a17.71,17.71,0,0,1-17.3,20.6l-12.61.12,1,21.44-39.9,1.87q-.89-11.17-1.76-22.35-.63-10.2-1.25-20.4A13,13,0,0,1,238.92,333.46Z"/><path d="M254.94,389,253,364.7l-1.12-18.39h-.18A15,15,0,0,1,237,333.78h0a15,15,0,0,1,12.29-17.22l-3.13-34.14,50.8-2.92a22.3,22.3,0,0,1,23.29,18.63l1,6a30.22,30.22,0,0,0,7,14.88,6.92,6.92,0,0,1-.18,9.44l-2.37,2.42,1.94,11.69a19.7,19.7,0,0,1-19.25,22.93l-10.53.1,1,21.37Zm.7-47.17,1.38,22.6,1.61,20.39,36-1.68-1-21.52,14.68-.14a15.7,15.7,0,0,0,15.35-18.27l-2.27-13.69,3.78-3.87a2.93,2.93,0,0,0,0-4,34.47,34.47,0,0,1-7.93-16.87l-1-6a18.27,18.27,0,0,0-19.11-15.28l-46.66,2.68,3.13,34.14-2.14.05a12.7,12.7,0,0,0-1.54.13,11,11,0,0,0,3.53,21.67Z"/><circle cx="300.26" cy="318.46" r="3.15"/><path d="M253.87,338.7a5.61,5.61,0,1,1,5.55-6.53,5.59,5.59,0,0,1-4.62,6.45A4.87,4.87,0,0,1,253.87,338.7Zm0-7.22a1.23,1.23,0,0,0-.27,0,1.61,1.61,0,0,0-1.33,1.85,1.64,1.64,0,0,0,.66,1,1.6,1.6,0,0,0,1.2.28,1.61,1.61,0,0,0,1.32-1.85,1.59,1.59,0,0,0-.65-1.05A1.56,1.56,0,0,0,253.89,331.48Z"/><path class="cls-2" d="M293.22,383.44c-5.22-1.12-6.68-.31-30-1.38l-30-1.38a40.9,40.9,0,0,0-24.48,8.64c-14.55,11.57-15.17,29.1-15.22,31.66q2.25,56,4.51,112l133.71.9c2.62-6.08,6.3-14.8,10.5-25.36,10.47-26.29,15.71-39.61,15.59-48-.28-19.63-12.41-34-23.69-47.37C324.86,402.1,312.61,387.6,293.22,383.44Z"/><path d="M257.59,335.19h-.07a2,2,0,0,1-1.93-2.07,5.28,5.28,0,0,0-2.46-4.65,5.58,5.58,0,0,0-5-.28,2,2,0,0,1-1.69-3.63,9.59,9.59,0,0,1,8.8.51,9.27,9.27,0,0,1,4.33,8.19A2,2,0,0,1,257.59,335.19Z"/><path d="M299.13,281.45s7.64,41.92-47.79,38.85l-2.93-36Z"/><path d="M295.1,361.61q.27,6,.56,12l-22.84-10.17a.76.76,0,0,1,.29-1.46Z"/><path d="M303.59,348.34A13.16,13.16,0,0,1,292,340.61a3.4,3.4,0,0,1,2.45-4.76l16-3.05a3.42,3.42,0,0,1,4,3.31c.06,5-2.64,9.61-6.72,11.39A10.3,10.3,0,0,1,303.59,348.34ZM296,339.63c2.31,4.12,7.07,5.55,10.15,4.2,2.45-1.06,4.12-3.81,4.3-7Zm14.81-4.86h0Z"/><rect class="cls-5" x="299.02" y="491.6" width="107.04" height="107.04" rx="14.17"/><path class="cls-7" d="M352.54,598.38a2,2,0,0,1-2-2V494a2,2,0,0,1,4,0V596.38A2,2,0,0,1,352.54,598.38Z"/><rect class="cls-2" x="254.26" y="373.63" width="44.31" height="16.13" transform="translate(-19.87 15.21) rotate(-3.04)"/><path d="M225.39,319s-35.38-6.58-68,14.21a82,82,0,0,0-32.48,39.47c-3,7.67-5.05,16.59-3.93,25.22,2.43,18.85,21.91,30.54,39.21,22.69C171,415.69,183.25,403,193.9,374c0,0,10.55-31,34.74-33Z"/><rect class="cls-5" x="266.56" y="450.7" width="121.22" height="22.52" rx="5.31" transform="translate(-174.02 198.79) rotate(-26.99)"/><path class="cls-8" d="M329.39,473.48,310,484a46.28,46.28,0,0,1-11.19,4.37c-6.58,1.59-15,2-16.81-5.42,0,0-5.28-9.33,20.47-19.31a3.35,3.35,0,0,0-1.46-6.3,44.59,44.59,0,0,0-9.26.82,55.53,55.53,0,0,0-9.1,3.32,58.79,58.79,0,0,0-22.23,18.49,25,25,0,0,1-7.83,6.93L223.93,503c11.53-39.77,19.86-69.17,23.08-80.25a35.49,35.49,0,0,0,1.47-11.59c-.08-1.77-.49-11.22-6-17.93-6.55-7.95-19.26-10.79-28.55-8.23-15.56,4.3-21.94,23.89-34.16,61.45-6.56,20.14-10.9,40.23-12.84,49.17-3.09,14.29-6.09,27.9-2.59,42.43,2.26,9.38,6.86,18.67,15.21,24a30.77,30.77,0,0,0,12.05,4.41A37.63,37.63,0,0,0,220,558.9l41.86-32a59.32,59.32,0,0,1,19.29-9.79L291.8,514a41.37,41.37,0,0,0,19.39-12.39l21.28-24.25a2.54,2.54,0,0,0,.28-3.1A2.57,2.57,0,0,0,329.39,473.48Z"/><path d="M196.84,568.87a36.84,36.84,0,0,1-5.55-.42,32.63,32.63,0,0,1-12.83-4.71c-9.77-6.27-14.14-17.19-16.08-25.24-3.57-14.85-.62-28.49,2.5-42.94l.09-.38a509.17,509.17,0,0,1,12.89-49.37c12.6-38.73,18.93-58.17,35.53-62.75,9.2-2.55,23.06-.3,30.62,8.88,5.17,6.28,6.27,14.67,6.47,19.11a36.67,36.67,0,0,1-1.55,12.22c-1.19,4.11-3.08,10.7-5.56,19.39-4.06,14.15-9.51,33.21-16.16,56.18l24.38-13.72a22.88,22.88,0,0,0,7.2-6.38,60.28,60.28,0,0,1,23-19.12,57.71,57.71,0,0,1,9.43-3.43l.17,0a46.34,46.34,0,0,1,9.69-.85,5.34,5.34,0,0,1,2.31,10.06l-.21.1C288.8,471,285,476.18,283.94,478.75a4.16,4.16,0,0,0-.19,3.23l.13.24,0,.23c1.13,4.65,6,6,14.4,3.94A44.49,44.49,0,0,0,309,482.2l19.41-10.48a4.5,4.5,0,0,1,5.52,7L312.7,502.92a43.4,43.4,0,0,1-20.34,13l-10.67,3.15A57.49,57.49,0,0,0,263,528.53l-41.85,32A40.35,40.35,0,0,1,196.84,568.87ZM221,386.08a24.69,24.69,0,0,0-6.53.83c-14.52,4-20.63,22.77-32.79,60.14a505.41,505.41,0,0,0-12.78,49l-.09.37c-3,14-5.88,27.2-2.52,41.16,1.77,7.34,5.7,17.26,14.35,22.81a28.65,28.65,0,0,0,11.27,4.13,35.78,35.78,0,0,0,26.87-7.19l41.85-32a61.26,61.26,0,0,1,19.95-10.12l10.67-3.15a39.33,39.33,0,0,0,18.46-11.8L331,476a.59.59,0,0,0,.12-.68.58.58,0,0,0-.74-.11h0l-19.41,10.48a48.89,48.89,0,0,1-11.67,4.56c-14.19,3.42-18.11-2.61-19.17-6.69a8,8,0,0,1,0-6c2.06-5.75,9.29-11.08,21.49-15.83a1.25,1.25,0,0,0,.6-1.43,1.29,1.29,0,0,0-1.28-1.05,42.88,42.88,0,0,0-8.75.78,53.09,53.09,0,0,0-8.69,3.17A56.24,56.24,0,0,0,262,481.12a27.13,27.13,0,0,1-8.45,7.49l-32.92,18.52,1.36-4.7c7.27-25.08,13.2-45.77,17.52-60.87,2.49-8.7,4.38-15.3,5.57-19.39a33.4,33.4,0,0,0,1.39-10.95c-.17-3.94-1.12-11.36-5.56-16.74C236.2,388.75,228.14,386.08,221,386.08Z"/><path d="M201.34,517.14a2,2,0,0,1-1-3.77L223,501.22a2,2,0,1,1,1.89,3.53L202.28,516.9A2,2,0,0,1,201.34,517.14Z"/><path class="cls-4" d="M504.89,177.63a24.9,24.9,0,1,1,24.9-24.9A24.93,24.93,0,0,1,504.89,177.63Zm0-45.8a20.9,20.9,0,1,0,20.9,20.9A20.92,20.92,0,0,0,504.89,131.83Z"/><rect x="498.34" y="68.05" width="13.09" height="56.92" rx="6.55"/><path class="cls-5" d="M503.85,109.09a84.13,84.13,0,0,0-73.24,45,3,3,0,0,0,2.65,4.39H576.52a3,3,0,0,0,2.65-4.4A84.19,84.19,0,0,0,503.85,109.09Z"/><path class="cls-7" d="M460.89,145.36c-9.62,0-17.45-6.48-17.57-6.58a2,2,0,0,1,2.58-3.06h0c.62.51,15.1,12.43,27.41.12l1.21-1.22,1.39,1a34.37,34.37,0,0,0,10.25,4.73c7.5,2,13.82.45,18.81-4.53l1.18-1.18,1.37.94c.6.42,15,10.08,24.84.24l1.24-1.24,1.39,1.06a31.58,31.58,0,0,0,9.74,4.67c7.15,1.95,13.27.43,18.2-4.49a2,2,0,1,1,2.83,2.82c-12,12.06-27.18,4.07-31.8,1.13-9,7.61-21,3.78-27.35,0-12,10.56-27,2.84-31.66,0A20.63,20.63,0,0,1,460.89,145.36Z"/><path class="cls-3" d="M395.85,350.64a6.24,6.24,0,0,1-1.75-.26,5.9,5.9,0,0,1-4-4.23L380,306.25a5.95,5.95,0,0,1,7.49-7.14l40.62,12.32a5.94,5.94,0,0,1,2.25,10.1L399.81,349.1h0A5.87,5.87,0,0,1,395.85,350.64Zm-10.12-47.79a2,2,0,0,0-1.32.54,1.9,1.9,0,0,0-.54,1.88L394,345.16a1.9,1.9,0,0,0,1.32,1.39,1.88,1.88,0,0,0,1.86-.42h0l30.54-27.57a1.94,1.94,0,0,0-.73-3.3l-40.63-12.32A1.75,1.75,0,0,0,385.73,302.85Z"/><circle class="cls-5" cx="437.87" cy="400.02" r="23.03"/><rect class="cls-4" x="453.79" y="294.86" width="59.76" height="59.76" rx="11.06" transform="translate(-29.8 599.95) rotate(-62.07)"/><path class="cls-7" d="M437.87,425.05a2,2,0,0,1-1.91-1.42c-7.35-24.33,9.14-37,18.89-40.33a2,2,0,0,1,1.28,3.79c-1,.35-24.39,8.73-16.34,35.38a2,2,0,0,1-1.34,2.49A2,2,0,0,1,437.87,425.05Z"/><path class="cls-7" d="M419,415.15a2,2,0,0,1-1.45-3.37c3.83-4,5.68-8.18,5.5-12.36-.28-6.45-5.32-11-5.37-11a2,2,0,1,1,2.64-3c.26.22,6.35,5.64,6.72,13.81.24,5.32-2,10.48-6.59,15.33A2,2,0,0,1,419,415.15Z"/><rect class="cls-5" x="706.29" y="732.86" width="137.28" height="33.38" rx="8.04"/><path class="cls-7" d="M714.45,766.79a2,2,0,0,1-1.6-.81,2,2,0,0,1,.4-2.8l18.31-13.66-18.33-14.16a2,2,0,0,1,2.44-3.17l22.5,17.39-22.52,16.81A2,2,0,0,1,714.45,766.79Z"/><path class="cls-7" d="M841.78,751.55H734.86a2,2,0,1,1,0-4H841.78a2,2,0,0,1,0,4Z"/><rect class="cls-3" x="679.48" y="766.31" width="185" height="107.82" rx="12.98"/><path d="M830.32,873.84h0a2,2,0,0,1-2-2l0-55.35a2,2,0,0,1,2-2h0a2,2,0,0,1,2,2l0,55.35A2,2,0,0,1,830.32,873.84Z"/><rect class="cls-8" x="689.33" y="782.84" width="37.91" height="24.7" rx="5.46"/><path d="M723,819.87H692.44a2,2,0,0,1,0-4H723a2,2,0,0,1,0,4Z"/><path d="M714.92,829.21H692.44a2,2,0,0,1,0-4h22.48a2,2,0,1,1,0,4Z"/><path d="M830.14,818.49a11.34,11.34,0,0,1-9.35-4.9L790.64,773a2,2,0,1,1,3.21-2.39L824,811.26a7.38,7.38,0,0,0,12.42-.32l22.21-40a2,2,0,0,1,3.5,1.94l-22.25,40a11.38,11.38,0,0,1-9.43,5.54Z"/><path d="M788.48,874.84h0a2,2,0,0,1-2-2v-90c-.44-14.28,9-17.32,9.45-17.44a2,2,0,0,1,1.17,3.82c-.33.11-7,2.44-6.62,13.56v90.06A2,2,0,0,1,788.48,874.84Z"/><path d="M267.84,390.82a2.5,2.5,0,0,1-2.5-2.35l-.71-12.31a2.5,2.5,0,0,1,5-.29l.72,12.31a2.5,2.5,0,0,1-2.36,2.64Z"/><path d="M283.69,390a2.5,2.5,0,0,1-2.49-2.35l-.71-12.32a2.5,2.5,0,1,1,5-.28l.71,12.31a2.5,2.5,0,0,1-2.35,2.64Z"/></svg>